<svg width="520" height="400" viewBox="0 0 520 400" fill="none" xmlns="http://www.w3.org/2000/svg"><path d="M0 43a3 3 0 0 1 3-3h254a3 3 0 0 1 3 3v174a3 3 0 0 1-3 3H3a3 3 0 0 1-3-3V43z" fill="#495060"/><path d="M0 43a3 3 0 0 1 3-3h254a3 3 0 0 1 3 3v12H0V43z" fill="#727A8B"/><path d="M7 48a2 2 0 1 1 4 0 2 2 0 0 1-4 0zm8 0a2 2 0 1 1 4 0 2 2 0 0 1-4 0zm8 0a2 2 0 1 1 4 0 2 2 0 0 1-4 0z" fill="#495060"/><rect x="30" y="80" width="70" height="5" rx="1" fill="#727A8B"/><rect x="40" y="110" width="20" height="5" rx="1" fill="#727A8B"/><rect x="30" y="120" width="65" height="5" rx="1" fill="#727A8B"/><rect x="65" y="110" width="80" height="5" rx="1" fill="#727A8B"/><rect x="150" y="110" width="30" height="5" rx="1" fill="#727A8B"/><rect x="30" y="90" width="50" height="5" rx="1" fill="#727A8B"/><rect x="30" y="100" width="50" height="5" rx="1" fill="#727A8B"/><rect x="30" y="140" width="40" height="5" rx="1" fill="#727A8B"/><rect x="30" y="150" width="60" height="5" rx="1" fill="#727A8B"/><rect x="30" y="160" width="50" height="5" rx="1" fill="#727A8B"/><rect x="30" y="170" width="100" height="5" rx="1" fill="#727A8B"/><rect x="30" y="130" width="50" height="5" rx="1" fill="#727A8B"/><rect x="85" y="130" width="20" height="5" rx="1" fill="#727A8B"/><rect x="110" y="130" width="50" height="5" rx="1" fill="#727A8B"/><path d="M32 183l4 4-4 4m7.5 1.5h8" stroke="#727A8B" stroke-width="2" stroke-linecap="round" stroke-linejoin="round"/><mask id="a" fill="#fff"><path d="M150 10c0-5.523 4.477-10 10-10h300c5.523 0 10 4.477 10 10v245a1 1 0 0 1-1 1H151a1 1 0 0 1-1-1V10z"/></mask><path d="M150 10c0-5.523 4.477-10 10-10h300c5.523 0 10 4.477 10 10v245a1 1 0 0 1-1 1H151a1 1 0 0 1-1-1V10z" fill="#fff" stroke="#D7DBDD" stroke-width="4" mask="url(#a)"/><path fill="#D9EDDE" d="M315.333 154.667h64v64h-64z"/><path fill-rule="evenodd" clip-rule="evenodd" d="M362.97 188.571c-1.554.298-2.91.728-4.531 1.158-.165-1.621-.397-3.704-.43-4.73-.132-3.241-.992-5.424-3.274-7.375-1.786-1.588-3.01 1.091-5.557 1.124-1.554.033-2.944-4.796-5.589-3.737-3.804 1.554-6.285 5.159-6.648 9.492-.067.992-.43 3.076-.662 4.697-1.654-.463-2.977-.992-4.564-1.389-2.878-.695-5.193-.761-4.035 1.786.827 1.885 8.731 3.969 19.58 4.233 10.848.265 18.819-1.422 19.745-3.274 1.158-2.481-1.157-2.547-4.035-1.985z" fill="#fff"/><path fill-rule="evenodd" clip-rule="evenodd" d="M319.6 227.2a2.133 2.133 0 0 0 0 4.267h55.467a2.133 2.133 0 0 0 0-4.267H319.6zm7.467 8.533a2.133 2.133 0 1 0 0 4.267H367.6a2.133 2.133 0 0 0 0-4.267h-40.533z" fill="#DEDEE2"/><path fill="#D1E7F8" d="M240.667 154.667h64v64h-64z"/><path fill-rule="evenodd" clip-rule="evenodd" d="M288.349 188.278c-.082-.39-.211-.818-.378-1.373a52.194 52.194 0 0 1-1.066-4.029c-1.498-6.899-2.193-8.396-4.386-9.145a9.294 9.294 0 0 0-.474-.167h-.001a17.1 17.1 0 0 1-.594-.207c-.122-.061-.26-.104-.407-.15-.111-.035-.226-.071-.342-.117-1.643-.745-2.406-1.705-2.975-2.422-.413-.519-.724-.911-1.196-1.001-.513-.079-1.345-.071-2.326-.061a95.67 95.67 0 0 1-2.194 0c-.981-.01-1.813-.018-2.326.061-.507.092-.835.502-1.267 1.041-.57.713-1.322 1.651-2.904 2.382a4.801 4.801 0 0 1-.343.117c-.146.046-.284.089-.406.15-.214.08-.414.147-.595.207-.18.06-.341.114-.474.167-2.193.749-2.888 2.246-4.386 9.145a56.815 56.815 0 0 1-1.162 4.427c-.111.371-.205.684-.282.975-.214 1.016-.16 9.519.107 10.482.116.377.295.581.435.74.117.134.207.236.207.383l.214 2.032h3.155l.214-2.407c.671-.671.605-2.838.529-5.337-.045-1.483-.094-3.083.006-4.556.238-.794.498-1.588.745-2.341.419-1.276.798-2.434.966-3.275.856 5.348-.481 16.044-1.069 17.702.748 1.284 4.973 1.979 8.931 2.032l.535-1.818v-23.609a.586.586 0 0 0 0-.485v-.827c-.91-.749-3.263-2.621-3.263-2.621h-5.348s3.904-1.497 4.814-3.851c0 .321.106.589.32 1.07v-.481c.129-.603 1.09-.582 2.519-.551.347.008.721.016 1.118.016h.107c.396 0 .771-.008 1.12-.016 1.443-.031 2.43-.052 2.517.551a.747.747 0 0 1 0 .481c.213-.481.32-.749.32-1.07.91 2.3 4.814 3.851 4.814 3.851h-5.455s-1.979 1.872-3.156 2.621v24.921l.535 1.818c3.958-.053 8.129-.748 8.878-2.032-.588-1.658-1.925-12.354-1.07-17.702.168.841.548 1.999.966 3.275.247.753.507 1.547.746 2.341.099 1.473.05 3.065.005 4.542-.076 2.488-.142 4.647.529 5.351l.214 2.407h3.156l.213-2.032c0-.141.093-.241.211-.367.15-.162.341-.366.431-.756.428-.963.482-9.466.268-10.482zm-15.509-10.457a.594.594 0 0 0-.535-.346.593.593 0 0 0-.588.588c0 .321.267.588.588.588a.595.595 0 0 0 .535-.345v-.485zm.32-5.587h-.053c-.401 0-.783-.008-1.138-.015-.969-.019-1.733-.035-2.124.122.909 1.711 2.513 3.797 3.315 4.706.803-.963 2.407-2.995 3.316-4.706-.452-.189-1.171-.165-2.081-.134-.38.013-.793.027-1.235.027zm-12.407 28.665a.46.46 0 0 0 .428.428.422.422 0 0 0 .428-.428.46.46 0 0 0-.428-.428.46.46 0 0 0-.428.428zm11.873-5.722a.595.595 0 0 0-.589-.589.594.594 0 0 0-.588.589c0 .32.268.588.588.588a.594.594 0 0 0 .589-.588zm-.589-6.257c.321 0 .589.267.589.588a.594.594 0 0 1-.589.588.594.594 0 0 1-.588-.588c0-.321.268-.588.588-.588zm.589-5.081a.594.594 0 0 0-.589-.588.594.594 0 0 0-.588.588c0 .321.268.588.588.588a.594.594 0 0 0 .589-.588zm-.589 16.418c.321 0 .589.268.589.588a.595.595 0 0 1-.589.589.594.594 0 0 1-.588-.589c0-.32.268-.588.588-.588zm12.568.642c0 .214.161.428.428.428a.422.422 0 0 0 .428-.428.422.422 0 0 0-.428-.428.422.422 0 0 0-.428.428z" fill="#fff"/><path fill-rule="evenodd" clip-rule="evenodd" d="M246 227.2a2.133 2.133 0 0 0 0 4.267h55.467a2.133 2.133 0 0 0 0-4.267H246zm7.467 8.533a2.133 2.133 0 1 0 0 4.267H294a2.133 2.133 0 0 0 0-4.267h-40.533z" fill="#DEDEE2"/><path fill="#FADADA" d="M390 154.667h64v64h-64z"/><path fill-rule="evenodd" clip-rule="evenodd" d="M395.333 227.2a2.133 2.133 0 0 0 0 4.267H450.8a2.133 2.133 0 0 0 0-4.267h-55.467zm7.467 8.533a2.133 2.133 0 0 0 0 4.267h40.533a2.133 2.133 0 1 0 0-4.267H402.8z" fill="#D7DBDD"/><path fill-rule="evenodd" clip-rule="evenodd" d="M427.214 170.689s-.333-.112-.556.166c-1.779 2.669-3.557 2.947-5.003 2.947-1.389 0-3.168-.223-5.003-2.947-.167-.278-.556-.166-.556-.166-2.39 1.779-6.893 2.39-7.504 3.168-1.334 1.723-4.336 12.897-4.725 15.565.667 3.947 3.891 13.23 3.891 13.23 1.056.112 3.002-.444 3.724-1.056 0 0-2.279-10.84-2.223-12.118.333-1.001 2.001-6.893 2.557-6.893.278 0 1.112 1.89 1.112 5.892 0 3.002-1.001 9.061-1.001 11.007 2.39.889 6.893 1.223 9.617 1.223 2.557-.167 7.393-.445 9.784-1.279 0-1.945-1.001-8.005-1.001-11.006 0-4.003.834-5.893 1.112-5.893.556 0 2.223 5.893 2.557 6.893.056 1.279-2.224 12.119-2.224 12.119.723.611 2.669 1.167 3.725 1.056 0 0 3.28-9.339 3.891-13.23-.389-2.669-3.391-13.842-4.725-15.565-.556-.723-5.059-1.334-7.449-3.113z" fill="#fff"/><path fill="#FBE5B4" d="M166 154.667h64v64h-64z"/><path fill-rule="evenodd" clip-rule="evenodd" d="M214.343 192.78c-.362-10.312-2.473-15.498-3.739-17.79-.241-.302-1.327-.663-1.327-.663h.905v-2.594s-6.393.242-12.242.242c-5.85 0-12.242-.242-12.242-.242v2.413l-.061.181h.905s-1.086.422-1.327.663c-1.266 2.231-3.377 7.478-3.739 17.79-.121 2.835-.301 5.126-.543 7.056 2.594 1.749 10.554 2.714 14.896 1.568.603-1.809.422-8.624 2.171-10.915 1.749 2.291 1.508 9.106 2.171 10.915 4.342 1.206 12.303.181 14.896-1.568-.422-1.93-.603-4.221-.724-7.056z" fill="#fff"/><path fill-rule="evenodd" clip-rule="evenodd" d="M170.267 227.2a2.133 2.133 0 1 0 0 4.267h55.466a2.133 2.133 0 1 0 0-4.267h-55.466zm7.466 8.533a2.133 2.133 0 0 0 0 4.267h40.534a2.133 2.133 0 0 0 0-4.267h-40.534zM156 0a6 6 0 0 0-6 6v12.2a1 1 0 0 0 1 1h318a1 1 0 0 0 1-1V6a6 6 0 0 0-6-6H156zm4.901 12.533a2.667 2.667 0 1 0 0-5.333 2.667 2.667 0 0 0 0 5.333zm13.035-2.666a2.667 2.667 0 1 1-5.334 0 2.667 2.667 0 0 1 5.334 0zm7.701 2.666a2.667 2.667 0 1 0 0-5.333 2.667 2.667 0 0 0 0 5.333z" fill="#DEDEE2"/><path fill-rule="evenodd" clip-rule="evenodd" d="M164.8 26.933a2 2 0 0 0-2 2V38.8a2 2 0 0 0 2 2h9.867a2 2 0 0 0 2-2v-9.867a2 2 0 0 0-2-2H164.8zm19.333 6.667a2.4 2.4 0 0 1 2.4-2.4h27.2a2.4 2.4 0 1 1 0 4.8h-27.2a2.4 2.4 0 0 1-2.4-2.4zM293.2 31.2a2.4 2.4 0 0 0 0 4.8h27.2a2.4 2.4 0 1 0 0-4.8h-27.2zm42.4 2.4a2.4 2.4 0 0 1 2.4-2.4h27.2a2.4 2.4 0 1 1 0 4.8H338a2.4 2.4 0 0 1-2.4-2.4zm47.2-2.4a2.4 2.4 0 1 0 0 4.8H410a2.4 2.4 0 0 0 0-4.8h-27.2zm44.8 0a2.4 2.4 0 0 0 0 4.8h27.2a2.4 2.4 0 0 0 0-4.8h-27.2z" fill="#D7DBDD"/><path fill="#EFF1F2" d="M166 48h288v96H166z"/><path fill-rule="evenodd" clip-rule="evenodd" d="M395.142 48.185C367.794 48.09 166 48 166 48v96h171.828c30.268 0 39.724-18.008 36.034-26.112-5.766-12.664-5.766-20.105 5.796-23.219 23.612-6.36 21.734 17.404 44.475 0 25.212-19.295-1.644-46.388-28.991-46.484z" fill="#E0E0F5"/><rect x="278" y="75.733" width="64" height="5.333" rx="2.5" fill="#fff"/><rect x="256.667" y="88.533" width="106.667" height="5.333" rx="2.5" fill="#fff"/><rect x="288.667" y="103.467" width="42.667" height="12.8" rx="2.5" fill="#fff"/><path d="M469.114 239.362s11.961 66.945 22.211 99.352c10.249 32.413 8.783 42.454 12.493 47.828 2.699 3.91 10.192 2.358 11.56 0 3.674-42.597-8.768-94.066-4.589-128.608 1.073-8.86 0-21.631 0-21.631l-41.675 3.059z" fill="url(#b)"/><path d="M460.134 242.505s1.237 17.439 2.689 38.405c1.975 28.477 4.349 63.463 4.584 70.09.404 11.505 2.973 36.288 2.973 36.288s3.862 4.375 11.596 2.531c0 0 5.951-32.654 7.916-60.455.031-.457.063-.913.089-1.376 1.829-28.305 4.679-87.902 4.679-87.902l-34.526 2.419z" fill="url(#c)"/><path d="M482.86 398.352c-2.472 2.486-17.755 1.653-24.284.765-.841-.1-1.676-.251-2.499-.451-3.469-.942-.314-6.61 1.885-8.194 1.543-1.107 3.605 0 4.985.628.587.259 3.191.437 3.491.314 3.469-1.571 3.783-6.296 3.783-6.296s2.605 1.349 5.701 1.285c2.755-.056 6.938-1.285 6.938-1.285s1.584 11.664 0 13.234z" fill="url(#d)"/><path d="M515.604 398.352c-2.472 2.486-17.755 1.653-24.284.765-.841-.1-1.676-.251-2.499-.451-3.47-.942-.315-6.61 1.884-8.194 1.544-1.107 3.606 0 4.986.628.587.259 3.191.437 3.491.314 3.469-1.571 3.783-6.296 3.783-6.296s2.604 1.349 5.701 1.285c2.755-.056 6.938-1.285 6.938-1.285s1.584 11.664 0 13.234z" fill="url(#e)"/><path d="M389.578 128.001l-1.561.568a1 1 0 0 0-.598 1.282l4.287 11.777a.999.999 0 0 0 1.281.598l19.376-7.053a1.001 1.001 0 0 1 1.282.598l1.969 5.409" stroke="#B4B7B8" stroke-linecap="square"/><rect width="5.322" height="21.289" rx="1" transform="rotate(-20 609.475 -1100.399)" fill="url(#f)"/><rect width="39.917" height="10.645" rx="1" transform="rotate(-20 542.663 -1038.035)" fill="url(#g)"/><path d="M426.51 157.558s-.989-5.74-2.553-7.57c-1.563-1.83-3.419-2.429-2.454 1.257.965 3.686-1.523 1.56-3.859-.721-2.336-2.282-2.667-4.644-2.667-4.644s-.168-.868-1.384.688-.552 5.238-.682 6.628c-.13 1.39 2.998 6.277 7.804 9.15l7.713 11.123 4.97-7.563-6.888-8.348z" fill="url(#h)"/><path d="M484.815 140.935l-13.113 3.514 3.267 12.191 13.113-3.514-3.267-12.191z" fill="url(#i)"/><path d="M463.781 121.04s-2.187 5.443-1.612 16.397c.574 10.953 3.321 12.288 8.369 11.691 4.845-.574 7.504-3.461 10.363-6.975 5.688-6.992-6.429-20.313-6.429-20.313l-10.691-.8z" fill="url(#j)"/><path d="M475.059 147.334c-1.651-.868-5.804-8.196-5.23-11.655.575-3.46 3.173-5.196 1.449-8.656-1.723-3.459-4.621 2.024-4.334 4.035 0 0-3.747-1.437-3.16-10.08 0 0-6.111-.818-6.632-3.747-3.252-18.282 38.736-10.27 35.459 2.873 0 0 1.436 0 2.011 4.621.574 4.621-5.393 19.59-7.407 20.749-4.163 2.396-10.505 2.729-12.156 1.86z" fill="url(#k)"/><path d="M511.928 165.281c5.651 7.54 11.84 34.109 5.191 41.961-3.181 3.757-13.402 3.987-25.307 5.679l-.679-11.529 9.418-7.025s-1.939-5.525-2.159-5.989c-2.268-4.789-5.948-10.081-9.902-15.831-4.323-6.278-3.419-8.491-2.61-13.147 1.82-10.476 19.793-2.464 26.048 5.881z" fill="url(#l)"/><path d="M483.975 253.993c-31.158-4.091-25.924-14.248-25.924-14.248l1.559-48.082s-5.087-22.305 3.423-30.711c3.362-3.321 7.687-5.092 8.803-5.786a.453.453 0 0 0 .233-.463c-.11-1.473.523-4.302 9.712-5.789 9.19-1.487 10.812 4.209 10.812 4.209l1.217.336c.967.32 1.918.688 2.848 1.102 14.297 5.764 15.701 19.461 15.391 35.15-.257 17.017 1.107 33.115 2.571 44.869 1.465 11.753.497 23.54-30.645 19.413z" fill="url(#m)"/><path d="M473.528 182.342c-6.111 7.173-30.665 19.061-39.788 14.304-4.365-2.276-11.723-24.168-15.995-35.408l11.096-3.201 13.809 19.612s4.963-3.107 5.366-3.424c4.172-3.267 8.525-8.022 13.262-13.145 5.173-5.599 7.53-5.205 12.25-5.441 10.619-.532 6.762 18.765 0 26.703z" fill="url(#n)"/><path d="M118.089 398.991h-.103a1.113 1.113 0 0 1-1.04-.706 1.123 1.123 0 0 1-.079-.436l1.698-73.367 4.987-.582-4.253 73.956a1.207 1.207 0 0 1-1.21 1.135z" fill="url(#o)"/><path d="M198.27 398.991h.107c.148 0 .296-.029.433-.086a1.123 1.123 0 0 0 .682-1.056l-1.694-73.367-4.987-.582 4.253 73.956a1.206 1.206 0 0 0 1.206 1.135z" fill="url(#p)"/><path d="M114.788 319.932v-50.276a16.015 16.015 0 0 1 16.018-16.018h36.221a16.002 16.002 0 0 1 11.327 4.691 16.015 16.015 0 0 1 4.691 11.327v52.197l-68.257-1.921z" fill="url(#q)"/><path d="M114.788 319.929v3.131a4.804 4.804 0 0 0 4.809 4.805h78.318a3.557 3.557 0 0 0 3.557-3.557v-.822a3.558 3.558 0 0 0-3.557-3.557h-83.127z" fill="url(#r)"/><path d="M195.857 307.404c-5.174 9.032-11.716 12.518-11.716 12.518h-27.166s42.844-19.407 38.882-12.518z" fill="url(#s)"/><path d="M175.009 377.281a2.506 2.506 0 0 0-.45 2.684c.647 1.789 2.788 3.787 5.275 5.783.324.255.598.488.844.705l.191.171c.052.042.097.091.146.133 2.318 2.134 1.445 2.626 5.611 6.959 4.747 4.939 8.013 5.029 8.945 4.58.786-.385-.812-3.005-2.587-5.948-.084-.142-.169-.287-.259-.43l-.702-1.183c-2.076-3.558-1.543-5.207-1.051-10.482.401-4.285 6.669-23.932 6.669-23.932l-9.091-1.565s-2.739 15.656-5.757 18.065c-1.617 1.294-3.421 1.294-4.974 2.264a7.29 7.29 0 0 0-.323.204 11.89 11.89 0 0 0-2.487 1.992z" fill="url(#t)"/><path d="M175.009 377.281a2.506 2.506 0 0 0-.45 2.684c.796 1.785 2.882 3.774 5.282 5.763.323.262.591.502.837.725l.191.171c.052.042.097.091.146.133 2.318 2.134 1.445 2.626 5.611 6.959 4.747 4.939 8.013 5.029 8.945 4.58.786-.385-.812-3.005-2.587-5.948a20.236 20.236 0 0 1-8.444-6.222c-2.856-3.648-4.764-8.334-6.711-11.047-.11.064-.217.132-.323.203a11.896 11.896 0 0 0-2.497 1.999z" fill="url(#u)"/><path d="M248.368 371.599c.559 2.81 4.563 2.341 9.036 1.248 4.472-1.093 3.408.207 9.773-.498s8.295-3.078 8.489-4.026c.172-.838-2.972-1.135-6.345-1.523l-1.277-.152c-3.81-.479-6.598-2.937-10.058-4.955-3.276-1.911-8.166-9.702-8.166-9.702l-8.732.692s4.58 6.957 6.352 9.984c1.041 1.778.97 4.13.857 5.947-.111.994-.087 1.998.071 2.985z" fill="url(#v)"/><path d="M257.404 372.847c4.473-1.093 3.409.207 9.773-.498 6.365-.705 8.296-3.078 8.49-4.026.171-.838-2.972-1.135-6.346-1.523l-.032.064a17.93 17.93 0 0 1-9.117 2.833c-4.317.107-8.89-1.131-11.872-1.083-.111.994-.088 1.998.068 2.985.56 2.81 4.563 2.341 9.036 1.248z" fill="url(#w)"/><path d="M214.916 315.783l-8.163 21.959-10.653 28.657a17.162 17.162 0 0 1-5.659-.518c-2.548-.734-5.472-2.661-5.472-2.661s2.956-30.785 8.476-48.456c1.414-4.527 2.998-8.208 4.748-10.271 8.554-10.097 16.723 11.29 16.723 11.29z" fill="url(#x)"/><path d="M206.618 280.911c-5.346-1.724-20.594.491-35.898 3.489l-3.205-5.291-33.084-2.587s-10.918 24.21-4.941 39.636c.879 2.264 2.626 3.723 5.601 3.771h26.568c16.451 0 34.82-11.319 37.191-11.785 3.881-.776 5.446 7.002 9.333 15.168 3.887 8.166 36.545 36.169 36.545 36.169s5.022.049 7.095-.727c2.231-.838 3.046-1.925 3.046-1.925s-36.195-72.028-48.251-75.918z" fill="url(#y)"/><path d="M166.199 182.778c-4.237-2.225-10.673-2.526-11.733-2.668-12.536-1.685-20.084 16.532-20.527 22.052-.818 10.175-6.199 11.727-13.773 18.111-15.2 12.774-10.737 27.622-2.432 33.136 4.983 3.311 13.767 0 13.767 0 .126.087 24.025-13.36 35.807-19.848 17.661-2.522 9.692-45.111-1.109-50.783z" fill="url(#z)"/><path d="M157.432 228.028c.052.036-5.795 2.031-9.702.298-3.68-1.617-6.468-7.678-6.413-7.681 1.675-.078 3.512-1.54 4.928-11.141l.712.255 11.979 4.317s-.87 3.842-1.43 7.503c-.456 3.069-.727 6.016-.074 6.449z" fill="url(#A)"/><path fill-rule="evenodd" clip-rule="evenodd" d="M165.086 194.955c.607.801 1.159 1.639 1.492 2.399.988 2.248 1.336 7.396.707 9.978-1.624 5.328-4.111 10.731-6.564 10.554 0 0-16.393-2.199-14.876-12.386.176-1.185.317-2.328.446-3.422 1.271.119 2.801.129 4.615-.058 4.553-.467 10.492-4.338 14.18-7.065z" fill="url(#B)"/><path d="M157.505 221.576s14.259 2.419 15.934 8.557l11.53 42.233s-7.251 1.294-10.598-2.044c-3.347-3.337-11.643-31.072-11.643-31.072l-5.223-17.674z" fill="url(#C)"/><path d="M171.237 252.177c-.495 33.184-.136 26.25-3.768 29.4-.873.757-3.334 1.21-6.568 1.423-10.174.676-28.062-1.003-28.744-2.881-2.345-6.507-.689-8.529-2.649-18.489a81.381 81.381 0 0 0-.753-3.458c-1.617-6.839-3.234-9.168 2.571-20.16 5.255-9.955 10.711-18.036 11.203-17.745 13.857 8.227 14.976 1.313 14.976 1.313s13.974 14.41 13.732 30.597z" fill="url(#D)"/><path d="M149.242 276.525s10.026-2.234 11.643-1.342l.105.06 6.026 2.925a1.092 1.092 0 0 1-1.012.392c-.226-.011-.555-.081-.905-.173.923.833 1.663 1.613 1.859 2.061.278.635-.89.288-2.205-.202l.562 1.011a2.064 2.064 0 0 1-1.135-.243c-.341-.159-1.026-.9-1.632-1.61a7.462 7.462 0 0 0-.532-.172c-.815-.22-2.887.475-4.064.869l-.003.001-.195.065c-4.738 1.578-7.642.766-7.642.766l-.87-4.408z" fill="url(#E)"/><path d="M142.519 220.26s-13.479.831-18.146 7.338c-6.568 9.162-19.598 48.187-12.131 53.413 8.409 5.863 38.275 1.533 38.275 1.533s.996-4.647-.388-6.892c-1.384-2.244-23.854-5.879-24.902-6.914-1.048-1.035 12.962-20.226 12.962-23.337 0-3.111 4.33-25.141 4.33-25.141z" fill="url(#F)"/><path d="M213.561 285.17h-51.593l.027-.061h-14.816a1.142 1.142 0 0 1 0-2.284h15.8l13.748-31.89a3.234 3.234 0 0 1 2.97-1.954h47.422c.928 0 1.554.95 1.188 1.804l-14.746 34.385z" fill="url(#G)"/><path d="M289.847 400h.139a1.568 1.568 0 0 0 1.088-.523 1.557 1.557 0 0 0 .39-1.143l-2.241-107.046-6.594-.85 5.624 107.906c.004.428.171.838.467 1.146.297.307.7.49 1.127.51z" fill="url(#H)"/><path d="M150.847 400h-.143a1.563 1.563 0 0 1-1.087-.523 1.552 1.552 0 0 1-.387-1.143l2.237-107.046 6.595-.85-5.624 107.906a1.671 1.671 0 0 1-1.591 1.656z" fill="url(#I)"/><path d="M292.445 285.17H142.232a2.403 2.403 0 0 0-2.403 2.403v2.855a2.403 2.403 0 0 0 2.403 2.403h150.213a2.403 2.403 0 0 0 2.403-2.403v-2.855a2.403 2.403 0 0 0-2.403-2.403z" fill="url(#J)"/><defs><linearGradient id="b" x1="485.5" y1="308" x2="516.066" y2="306" gradientUnits="userSpaceOnUse"><stop stop-color="#134E78"/><stop offset="1" stop-color="#2A73A7"/></linearGradient><linearGradient id="c" x1="456.5" y1="293.5" x2="520.248" y2="310.922" gradientUnits="userSpaceOnUse"><stop stop-color="#134E78"/><stop offset="1" stop-color="#2A73A7"/></linearGradient><linearGradient id="d" x1="471.273" y1="387.732" x2="474.328" y2="397.032" gradientUnits="userSpaceOnUse"><stop stop-color="#F1833E"/><stop offset="1" stop-color="#DD6920"/></linearGradient><linearGradient id="e" x1="504.016" y1="387.732" x2="507.072" y2="397.032" gradientUnits="userSpaceOnUse"><stop stop-color="#F1833E"/><stop offset="1" stop-color="#DD6920"/></linearGradient><linearGradient id="f" x1="2.919" y1=".508" x2="-6.988" y2="8.252" gradientUnits="userSpaceOnUse"><stop stop-color="#474847"/><stop offset="1" stop-color="#2F302F"/></linearGradient><linearGradient id="g" x1="19.958" y1="10.645" x2="19.958" gradientUnits="userSpaceOnUse"><stop stop-color="#464B78"/><stop offset="1" stop-color="#585E91"/></linearGradient><linearGradient id="h" x1="413.215" y1="154.973" x2="417.941" y2="151.574" gradientUnits="userSpaceOnUse"><stop stop-color="#895836"/><stop offset="1" stop-color="#9A6A49"/></linearGradient><linearGradient id="i" x1="480.239" y1="148.787" x2="480.722" y2="151.886" gradientUnits="userSpaceOnUse"><stop stop-color="#76492A"/><stop offset="1" stop-color="#895836"/></linearGradient><linearGradient id="j" x1="468.297" y1="147.463" x2="473.905" y2="130.819" gradientUnits="userSpaceOnUse"><stop stop-color="#895836"/><stop offset="1" stop-color="#9A6A49"/></linearGradient><linearGradient id="k" x1="475.236" y1="107.127" x2="456.159" y2="140.925" gradientUnits="userSpaceOnUse"><stop stop-color="#474847"/><stop offset=".766" stop-color="#2F302F"/></linearGradient><linearGradient id="l" x1="507.539" y1="164.539" x2="516.972" y2="206.919" gradientUnits="userSpaceOnUse"><stop stop-color="#F2833F"/><stop offset="1" stop-color="#EB6A19"/></linearGradient><linearGradient id="m" x1="499.7" y1="190.18" x2="463.032" y2="200.011" gradientUnits="userSpaceOnUse"><stop stop-color="#F1833E"/><stop offset="1" stop-color="#DD6920"/></linearGradient><linearGradient id="n" x1="478.177" y1="161.218" x2="430.217" y2="188.984" gradientUnits="userSpaceOnUse"><stop stop-color="#EA7A33"/><stop offset="1" stop-color="#EB6A19"/></linearGradient><linearGradient id="o" x1="123.552" y1="334.652" x2="123.578" y2="380.909" gradientUnits="userSpaceOnUse"><stop stop-color="#F1E1D3"/><stop offset="1" stop-color="#E1CCB9"/></linearGradient><linearGradient id="p" x1="199.493" y1="334.652" x2="199.519" y2="380.909" gradientUnits="userSpaceOnUse"><stop stop-color="#F1E1D3"/><stop offset="1" stop-color="#E1CCB9"/></linearGradient><linearGradient id="q" x1="117.925" y1="309.198" x2="135.227" y2="315.99" gradientUnits="userSpaceOnUse"><stop stop-color="#F1E1D3"/><stop offset="1" stop-color="#E1CCB9"/></linearGradient><linearGradient id="r" x1="118.733" y1="323.897" x2="156.248" y2="323.897" gradientUnits="userSpaceOnUse"><stop stop-color="#F1E1D3"/><stop offset="1" stop-color="#E1CCB9"/></linearGradient><linearGradient id="s" x1="181.149" y1="318.415" x2="167.89" y2="287.531" gradientUnits="userSpaceOnUse"><stop stop-color="#222"/><stop offset="1" stop-color="#444"/></linearGradient><linearGradient id="t" x1="192.793" y1="371.777" x2="184.708" y2="369.836" gradientUnits="userSpaceOnUse"><stop stop-color="#FFECCC"/><stop offset="1" stop-color="#F8D294"/></linearGradient><linearGradient id="u" x1="183.414" y1="390.857" x2="187.78" y2="386.773" gradientUnits="userSpaceOnUse"><stop stop-color="#699B55"/><stop offset="1" stop-color="#7EC263"/></linearGradient><linearGradient id="v" x1="256.987" y1="359.326" x2="242.919" y2="365.956" gradientUnits="userSpaceOnUse"><stop stop-color="#FFECCC"/><stop offset="1" stop-color="#F8D294"/></linearGradient><linearGradient id="w" x1="261.952" y1="373.242" x2="261.952" y2="369.302" gradientUnits="userSpaceOnUse"><stop offset=".009" stop-color="#699B55"/><stop offset="1" stop-color="#7EC263"/></linearGradient><linearGradient id="x" x1="203.949" y1="316.152" x2="189.72" y2="365.147" gradientUnits="userSpaceOnUse"><stop stop-color="#222"/><stop offset="1" stop-color="#444"/></linearGradient><linearGradient id="y" x1="125.525" y1="294.484" x2="254.869" y2="355.122" gradientUnits="userSpaceOnUse"><stop stop-color="#222"/><stop offset="1" stop-color="#444"/></linearGradient><linearGradient id="z" x1="143.903" y1="196.82" x2="143.903" y2="253.168" gradientUnits="userSpaceOnUse"><stop stop-color="#474847"/><stop offset="1" stop-color="#2F302F"/></linearGradient><linearGradient id="A" x1="158.936" y1="209.504" x2="152.306" y2="225.271" gradientUnits="userSpaceOnUse"><stop stop-color="#DEBF8B"/><stop offset="1" stop-color="#F8D294"/></linearGradient><linearGradient id="B" x1="147.647" y1="199.09" x2="161.654" y2="216.612" gradientUnits="userSpaceOnUse"><stop stop-color="#FFECCC"/><stop offset="1" stop-color="#F8D294"/></linearGradient><linearGradient id="C" x1="171.237" y1="261.173" x2="171.237" y2="240.081" gradientUnits="userSpaceOnUse"><stop offset=".009" stop-color="#699B55"/><stop offset="1" stop-color="#7EC263"/></linearGradient><linearGradient id="D" x1="149.243" y1="278.961" x2="149.243" y2="243.063" gradientUnits="userSpaceOnUse"><stop offset=".009" stop-color="#699B55"/><stop offset="1" stop-color="#7EC263"/></linearGradient><linearGradient id="E" x1="150.788" y1="276.107" x2="152.768" y2="283.449" gradientUnits="userSpaceOnUse"><stop stop-color="#FFECCC"/><stop offset="1" stop-color="#F8D294"/></linearGradient><linearGradient id="F" x1="96.257" y1="304.994" x2="105.747" y2="241.586" gradientUnits="userSpaceOnUse"><stop offset=".009" stop-color="#699B55"/><stop offset="1" stop-color="#7EC263"/></linearGradient><linearGradient id="G" x1="216.942" y1="256.579" x2="167.037" y2="285.17" gradientUnits="userSpaceOnUse"><stop stop-color="#CFCFCF"/><stop offset="1" stop-color="#E6E6E6"/></linearGradient><linearGradient id="H" x1="291.468" y1="306.126" x2="291.51" y2="373.617" gradientUnits="userSpaceOnUse"><stop stop-color="#F1E1D3"/><stop offset="1" stop-color="#E1CCB9"/></linearGradient><linearGradient id="I" x1="158.062" y1="306.126" x2="158.104" y2="373.617" gradientUnits="userSpaceOnUse"><stop stop-color="#F1E1D3"/><stop offset="1" stop-color="#E1CCB9"/></linearGradient><linearGradient id="J" x1="240.979" y1="285.17" x2="240.979" y2="292.831" gradientUnits="userSpaceOnUse"><stop offset=".05" stop-color="#F1E1D3"/><stop offset="1" stop-color="#E1CCB9"/></linearGradient></defs></svg>