<svg width="520" height="380" viewBox="0 0 520 380" fill="none" xmlns="http://www.w3.org/2000/svg"><path d="M0 23a3 3 0 0 1 3-3h254a3 3 0 0 1 3 3v174a3 3 0 0 1-3 3H3a3 3 0 0 1-3-3V23z" fill="#495060"/><path d="M0 23a3 3 0 0 1 3-3h254a3 3 0 0 1 3 3v12H0V23z" fill="#727A8B"/><path d="M7 28a2 2 0 1 1 4 0 2 2 0 0 1-4 0zm8 0a2 2 0 1 1 4 0 2 2 0 0 1-4 0zm8 0a2 2 0 1 1 4 0 2 2 0 0 1-4 0z" fill="#495060"/><rect x="30" y="60" width="90" height="5" rx="1" fill="#727A8B"/><rect x="40" y="90" width="20" height="5" rx="1" fill="#727A8B"/><rect x="30" y="100" width="65" height="5" rx="1" fill="#727A8B"/><rect x="65" y="90" width="80" height="5" rx="1" fill="#727A8B"/><rect x="150" y="90" width="30" height="5" rx="1" fill="#727A8B"/><rect x="30" y="70" width="50" height="5" rx="1" fill="#727A8B"/><rect x="30" y="80" width="50" height="5" rx="1" fill="#727A8B"/><rect x="30" y="120" width="40" height="5" rx="1" fill="#727A8B"/><rect x="30" y="130" width="60" height="5" rx="1" fill="#727A8B"/><rect x="30" y="140" width="50" height="5" rx="1" fill="#727A8B"/><rect x="30" y="150" width="100" height="5" rx="1" fill="#727A8B"/><rect x="30" y="110" width="50" height="5" rx="1" fill="#727A8B"/><rect x="85" y="110" width="20" height="5" rx="1" fill="#727A8B"/><rect x="110" y="110" width="50" height="5" rx="1" fill="#727A8B"/><path d="M32 163l4 4-4 4m7.5 1.5h8" stroke="#727A8B" stroke-width="2" stroke-linecap="round" stroke-linejoin="round"/><mask id="a" fill="#fff"><path d="M160 16c0-8.837 7.163-16 16-16h328c8.837 0 16 7.163 16 16v247a1 1 0 0 1-1 1H161a1 1 0 0 1-1-1V16z"/></mask><path d="M160 16c0-8.837 7.163-16 16-16h328c8.837 0 16 7.163 16 16v247a1 1 0 0 1-1 1H161a1 1 0 0 1-1-1V16z" fill="#fff" stroke="#E6E7E8" stroke-width="4" mask="url(#a)"/><path fill="#CEEBFC" d="M160 47h360v90H160z"/><rect x="300" y="83" width="80" height="6" rx="3" fill="#fff"/><rect x="280" y="95" width="120" height="6" rx="3" fill="#fff"/><path fill-rule="evenodd" clip-rule="evenodd" d="M166 0a6 6 0 0 0-6 6v14.6a1 1 0 0 0 1 1h358a1 1 0 0 0 1-1V6a6 6 0 0 0-6-6H166zm7.5 13.5a2.7 2.7 0 1 0 0-5.4 2.7 2.7 0 0 0 0 5.4zm13.5-2.7a2.7 2.7 0 1 1-5.4 0 2.7 2.7 0 0 1 5.4 0zm8.1 2.7a2.7 2.7 0 1 0 0-5.4 2.7 2.7 0 0 0 0 5.4zm-11.5 13.2a2 2 0 0 0-2 2v11.6a2 2 0 0 0 2 2h11.6a2 2 0 0 0 2-2V28.7a2 2 0 0 0-2-2h-11.6zm22 7.5a2.7 2.7 0 0 1 2.7-2.7h30.6a2.7 2.7 0 0 1 0 5.4h-30.6a2.7 2.7 0 0 1-2.7-2.7zm108.3-2.7a2.7 2.7 0 0 0 0 5.4h30.6a2.7 2.7 0 0 0 0-5.4h-30.6zm47.7 2.7a2.7 2.7 0 0 1 2.7-2.7h30.6a2.7 2.7 0 0 1 0 5.4h-30.6a2.7 2.7 0 0 1-2.7-2.7zm53.1-2.7a2.7 2.7 0 0 0 0 5.4h30.6a2.7 2.7 0 0 0 0-5.4h-30.6zm50.4 0a2.7 2.7 0 0 0 0 5.4h30.6a2.7 2.7 0 0 0 0-5.4h-30.6z" fill="#D7DBDD"/><path fill="#C6E2F7" d="M349.6 158.4h64.8v64.8h-64.8z"/><path fill="#FBE5B4" d="M349.6 158.4h64.8v64.8h-64.8z"/><path fill-rule="evenodd" clip-rule="evenodd" d="M398.452 195.235c-1.637.313-3.064.766-4.771 1.218-.174-1.706-.417-3.899-.452-4.979-.139-3.412-1.045-5.71-3.447-7.764-1.88-1.671-3.169 1.149-5.85 1.184-1.636.035-3.098-5.049-5.884-3.935-4.004 1.637-6.615 5.432-6.998 9.993-.07 1.045-.453 3.238-.697 4.944-1.74-.487-3.133-1.044-4.804-1.462-3.03-.731-5.467-.801-4.248 1.88.87 1.985 9.192 4.178 20.612 4.457 11.42.278 19.811-1.497 20.786-3.447 1.219-2.611-1.218-2.681-4.247-2.089z" fill="#fff"/><path fill-rule="evenodd" clip-rule="evenodd" d="M351.6 230.4a2 2 0 1 0 0 4h60.8a2 2 0 0 0 0-4h-60.8zm7.4 9.6a2 2 0 1 0 0 4h46a2 2 0 1 0 0-4h-46zm-91.4-9.6a2 2 0 1 0 0 4h60.8a2 2 0 0 0 0-4h-60.8zm7.2 9.6a2 2 0 1 0 0 4h46a2 2 0 0 0 0-4h-46z" fill="#D7DBDD"/><path fill="#D0E9D6" d="M265.6 158.4h64.8v64.8h-64.8z"/><path fill-rule="evenodd" clip-rule="evenodd" d="M313.091 191.051a55.177 55.177 0 0 1-1.124-4.249c-1.58-7.276-2.313-8.855-4.625-9.645a9.71 9.71 0 0 0-.501-.176c-.19-.064-.402-.134-.628-.219a2.891 2.891 0 0 0-.428-.158c-.117-.037-.239-.075-.361-.124-1.734-.785-2.538-1.797-3.138-2.553-.436-.548-.764-.962-1.262-1.057-.54-.083-1.418-.074-2.452-.064-.369.004-.757.008-1.158.008-.4 0-.788-.004-1.157-.008-1.034-.01-1.912-.019-2.452.064-.535.098-.881.53-1.337 1.099-.602.751-1.394 1.741-3.063 2.511-.122.049-.244.087-.361.124a2.905 2.905 0 0 0-.429.158c-.225.085-.437.155-.627.219-.191.063-.36.12-.501.176-2.312.79-3.046 2.369-4.625 9.645-.523 2.335-.932 3.693-1.225 4.669-.118.391-.217.721-.298 1.028-.225 1.072-.169 10.04.113 11.055.122.398.311.613.458.781.124.141.219.249.219.404l.225 2.143h3.328l.226-2.538c.708-.708.638-2.994.558-5.63-.048-1.563-.099-3.251.006-4.805.251-.837.526-1.675.786-2.469.441-1.345.842-2.567 1.019-3.453.902 5.64-.508 16.921-1.128 18.669.789 1.354 5.245 2.087 9.419 2.144l.564-1.918v-24.901a.595.595 0 0 0 0-.511v-.872c-.959-.79-3.44-2.764-3.44-2.764h-5.641s4.118-1.579 5.077-4.061c0 .338.112.62.338 1.128v-.508c.136-.635 1.149-.613 2.657-.58.365.008.76.016 1.179.016h.112c.418 0 .814-.008 1.181-.016 1.522-.033 2.564-.056 2.655.58a.789.789 0 0 1 0 .508c.225-.508.338-.79.338-1.128.959 2.425 5.077 4.061 5.077 4.061h-5.754s-2.087 1.974-3.327 2.764v26.284l.564 1.918c4.174-.057 8.573-.79 9.363-2.144-.621-1.748-2.031-13.029-1.128-18.669.177.886.577 2.108 1.018 3.453.261.794.535 1.632.787 2.469.105 1.554.053 3.233.006 4.79-.081 2.625-.15 4.901.558 5.645l.225 2.538h3.328l.226-2.143c0-.149.098-.254.222-.387.158-.171.36-.387.455-.798.451-1.015.507-9.983.282-11.055-.087-.411-.223-.862-.399-1.448zm-15.959-9.581a.625.625 0 0 0-.564-.365.626.626 0 0 0-.62.621c0 .338.282.62.62.62a.625.625 0 0 0 .564-.365v-.511zm.339-5.892h-.057c-.423 0-.826-.008-1.2-.016-1.022-.02-1.827-.037-2.24.129.959 1.804 2.651 4.004 3.497 4.963.846-1.015 2.538-3.159 3.497-4.963-.478-.199-1.235-.174-2.195-.141-.401.013-.837.028-1.302.028zm-13.086 30.232c0 .226.226.452.451.452a.445.445 0 0 0 .451-.452.485.485 0 0 0-.451-.451.486.486 0 0 0-.451.451zm12.522-6.035a.626.626 0 0 0-.621-.62.626.626 0 0 0-.62.62c0 .339.282.621.62.621a.626.626 0 0 0 .621-.621zm-.621-6.599c.339 0 .621.282.621.62a.626.626 0 0 1-.621.621.626.626 0 0 1-.62-.621c0-.338.282-.62.62-.62zm.621-5.359a.626.626 0 0 0-.621-.62.626.626 0 0 0-.62.62c0 .339.282.621.62.621a.626.626 0 0 0 .621-.621zm-.621 17.317c.339 0 .621.282.621.62s-.282.62-.621.62a.626.626 0 0 1-.62-.62c0-.338.282-.62.62-.62zm13.255.676c0 .226.169.452.452.452a.445.445 0 0 0 .451-.452.445.445 0 0 0-.451-.451.445.445 0 0 0-.452.451z" fill="#fff"/><path d="M440.8 242a2 2 0 0 1 2-2h46.4a2 2 0 1 1 0 4h-46.4a2 2 0 0 1-2-2z" fill="#D7DBDD"/><path fill="#FADADA" d="M433.6 158.4h64.8v64.8h-64.8z"/><path fill-rule="evenodd" clip-rule="evenodd" d="M472.285 172.825s-.375-.126-.625.187c-2.002 3.002-4.003 3.315-5.629 3.315-1.563 0-3.564-.251-5.628-3.315-.188-.313-.626-.187-.626-.187-2.689 2.001-7.754 2.689-8.442 3.564-1.501 1.939-4.878 14.509-5.316 17.511.751 4.44 4.378 14.884 4.378 14.884 1.188.125 3.377-.501 4.19-1.188 0 0-2.564-12.195-2.502-13.634.376-1.125 2.252-7.754 2.877-7.754.313 0 1.251 2.126 1.251 6.629 0 3.377-1.126 10.193-1.126 12.382 2.689 1.001 7.755 1.376 10.819 1.376 2.877-.188 8.318-.5 11.007-1.438 0-2.189-1.126-9.006-1.126-12.383 0-4.503.938-6.629 1.251-6.629.625 0 2.501 6.629 2.877 7.755.062 1.438-2.502 13.633-2.502 13.633.813.688 3.002 1.313 4.19 1.188 0 0 3.69-10.506 4.378-14.884-.438-3.002-3.815-15.572-5.316-17.51-.625-.813-5.691-1.501-8.38-3.502z" fill="#fff"/><path fill="#E0E0F5" d="M181.6 158.4h64.8v64.8h-64.8z"/><path fill-rule="evenodd" clip-rule="evenodd" d="M230.088 197.118c-.357-10.151-2.434-15.257-3.681-17.512-.237-.297-1.306-.653-1.306-.653h.89V176.4s-6.292.237-12.05.237c-5.759 0-12.051-.237-12.051-.237v2.374l-.06.179h.891s-1.069.415-1.306.653c-1.247 2.196-3.325 7.361-3.681 17.512-.119 2.79-.297 5.046-.534 6.946 2.553 1.721 10.389 2.671 14.663 1.543.593-1.781.415-8.489 2.137-10.745 1.722 2.256 1.484 8.964 2.137 10.745 4.274 1.187 12.11.178 14.663-1.543-.416-1.9-.594-4.156-.712-6.946z" fill="#fff"/><path fill-rule="evenodd" clip-rule="evenodd" d="M183.6 230.4a2 2 0 1 0 0 4h60.8a2 2 0 0 0 0-4h-60.8zm7.2 9.6a2 2 0 1 0 0 4h46a2 2 0 0 0 0-4h-46z" fill="#D7DBDD"/><path d="M94.851 379.438c10.003-49.944 7.429-80.579 7.422-80.966 0-.767 1.407-1.463 2.18-1.491.774-.028 4.221-.225 4.636.429.521.865 2.532 38.619-12.367 82.028h-1.87z" fill="url(#b)"/><path d="M175.416 379.438c-10.003-49.944-7.435-80.579-7.421-80.966 0-.767-1.407-1.463-2.181-1.491-.774-.028-4.221-.225-4.636.429-.52.865-2.539 38.619 12.367 82.028h1.871z" fill="url(#c)"/><path d="M191.371 379.438c-9.996-49.944-7.429-80.579-7.415-80.966 0-.767-1.407-1.463-2.18-1.491-.774-.028-4.221-.225-4.636.429-.528.865-2.54 38.619 12.366 82.028h1.865z" fill="url(#d)"/><path d="M110.946 379.438c10.003-49.944 7.428-80.579 7.421-80.966 0-.767 1.407-1.463 2.181-1.491.773-.028 4.22-.225 4.635.429.521.865 2.54 38.619-12.366 82.028h-1.871z" fill="url(#e)"/><path d="M100.239 297.326a8.576 8.576 0 0 1-.014-.443 1.696 1.696 0 0 1-.042-.38v-1.125c0-.196.032-.384.092-.56v-.045c.429-46.983-9.736-83.344-9.849-83.71a2.501 2.501 0 0 1-.077-.619s-1.041-6.95 10.031-7.119a32.1 32.1 0 0 1 1.902.026c.312-.017.635-.028.968-.033 11.079-.162 16.06 5.149 16.405 6.458 0 .011.034.145.1.397.345 1.327 1.541 5.928 3.03 13.285a380.544 380.544 0 0 1 1.871 9.932c1.646 9.37 3.018 22.806 3.651 38.247.619 6.843.971 12.964.865 17.489 2.164-.109 4.5-.195 7.02-.255 33.132-.789 45.174 2.471 49.526 4.755h2.501c.968 0 1.752.784 1.752 1.752v1.125c0 .968-.784 1.752-1.752 1.752h-86.284a1.753 1.753 0 0 1-1.545-.925l-.151-.004z" fill="url(#f)"/><path d="M93.522 255.971l-3.454 19.605-9.553 54.165-8.546 48.404a1.558 1.558 0 0 1-1.548 1.273 1.09 1.09 0 0 1-.83-.362 1.103 1.103 0 0 1-.274-.862l7.365-54.869 7.878-58.695 1.189-8.849 7.773.19z" fill="url(#g)"/><path d="M278.732 379.397a1.572 1.572 0 0 1-1.548-1.274l-7.583-43.001-10.917-61.854-3.053-17.298 7.738-.218 1.35 10.039 9.511 70.569 5.627 41.827a1.08 1.08 0 0 1-.285.863 1.09 1.09 0 0 1-.84.347z" fill="url(#h)"/><path d="M211.856 379.993c-3.138-1.936-1.352-16.358-1.352-16.358s14.611-11.814 16.615-2.767c2.011 9.041 13.877 13.105 20.636 14.21 4.666.762 6.106 3.378 6.555 4.922h-42.454v-.007z" fill="url(#i)"/><path d="M252.124 377.4c-3.673-.327-8.528-14.025-8.528-14.025s7.78-17.103 13.621-9.908c5.843 7.186 18.274 5.51 24.813 3.475 4.514-1.407 6.972.288 8.064 1.469l-37.967 18.995-.003-.006z" fill="url(#j)"/><path d="M184.327 262.882l2.68 13.074 16.911 1.665 5.89 88.459h18.917l-.719-94.392v-.004c0-7.554-6.315-15.351-13.682-13.678-9.769 2.22-22.132 2.644-29.997 4.876z" fill="url(#k)"/><path d="M96.054 126.094a10.868 10.868 0 0 1-2.625-2.286 3.445 3.445 0 0 1-.768-1.829 1.89 1.89 0 0 1 .777-1.728c.988-.631 2.268.046 3.238.713l5.985 4.121c1.12.771 2.231 1.537 3.343 2.334.805.576 1.939 1.454 1.637 2.606a1.595 1.595 0 0 1-1.411 1.292l-.026.003c.107.198.171.421.175.671a1.596 1.596 0 0 1-.328 1.098c.064.09.119.189.164.301a1.607 1.607 0 0 1 .045 1.317 1.606 1.606 0 0 1-.96.904c-1.085.385-2.211.64-3.356.759a53.648 53.648 0 0 1-3.457.475 64.347 64.347 0 0 1-3.933.275c-1.165.104-2.34.015-3.475-.265a3.492 3.492 0 0 1-1.692-.988 1.882 1.882 0 0 1-.403-1.828c.412-1.097 1.83-1.317 3.018-1.363l6.198-.228-.299-.082a118.442 118.442 0 0 1-3.75-1.189 11.125 11.125 0 0 1-3.127-1.518 3.464 3.464 0 0 1-1.216-1.545 1.883 1.883 0 0 1 .301-1.828c.787-.869 2.195-.549 3.311-.165l6.1 2.143-.165-.095a59.804 59.804 0 0 1-3.301-2.075z" fill="url(#l)"/><path d="M103.407 137.531a5.677 5.677 0 0 1 .402-3.264 12.644 12.644 0 0 1 2.744-4.462 5.194 5.194 0 0 1 1.994-1.353 2.681 2.681 0 0 1 2.332.256.705.705 0 0 1 .265.302c.146.32-.119.658-.348.914a17.045 17.045 0 0 0-3.027 4.809 19.479 19.479 0 0 0-.914 2.743c-.174.704-.421 2.002-1.372 1.993a2.501 2.501 0 0 1-2.076-1.938z" fill="url(#m)"/><path d="M108.181 153.769a25.46 25.46 0 0 1-2.341-12.919c.201-3.392.914-6.866 2.981-9.6a14.636 14.636 0 0 1 5.213-4.215 19.213 19.213 0 0 1 13.865-1.27c7.197 2.112 14.148 9.545 12.246 17.508a26.476 26.476 0 0 0-16.92-4.197 6.771 6.771 0 0 0-3.759 1.244 5.484 5.484 0 0 0-1.71 3.044 15.782 15.782 0 0 0 .119 6.51c.403 2.204.997 4.379 1.216 6.619a13.254 13.254 0 0 1 0 3.246c-.118.814-.31 1.829-1.198 2.103a3.367 3.367 0 0 1-2.478-.485 14.683 14.683 0 0 1-2.68-1.828 18.034 18.034 0 0 1-4.133-5.047c-.174-.229-.266-.466-.421-.713z" fill="url(#n)"/><path d="M116.997 156.713s-1.71 11.767-3 22.473c-.31 2.551.988 7.78 3.485 8.393l6.795 2.469c10.371-1.216 10.508-5.696 10.298-8.613l-1.28-12.361-16.298-12.361z" fill="url(#o)"/><path d="M141.617 137.934a42.957 42.957 0 0 1 2.744 18.331c-.384 5.531-2.122 13.522-7.152 16.795-3.11 2.03-7.371 1.646-10.581-.21a18.83 18.83 0 0 1-6.082-6.162c-.485-.75-4.399-6.857-3.759-7.507a2.956 2.956 0 0 1-3.658.366 4.395 4.395 0 0 1-1.829-3.392 3.507 3.507 0 0 1 .969-2.907c1.125-1.006 2.844-.805 4.335-.53-1.829-4.298-2.991-13.651-.21-17.418a13.76 13.76 0 0 1 12.291-5.412c2.002.319 3.975.799 5.899 1.435 1.829.494 3.658.805 4.802 2.414a19.783 19.783 0 0 1 2.231 4.197z" fill="url(#p)"/><path d="M120.006 155.35c.178-.183.288-.422.311-.676.329-1.829-.165-3.712-.466-5.55-.302-1.838-.366-3.886.695-5.422 1.234-1.828 3.658-2.404 5.862-2.249 2.204.156 4.298.914 6.484 1.106 2.449.189 6.402-.172 8.673-1.106 6.283-2.88-5.444-12.205-9.322-13.815-1.921-.795-1.07.759-3.137.915-1.04.064-2.072.227-3.082.484a8.59 8.59 0 0 1-1.427.384 3.338 3.338 0 0 0-1.225.375c-.448.22-.915.466-1.317.722a38.407 38.407 0 0 0-5.616 3.996c-2.597 2.231-5.057 5.248-4.755 8.658.201 2.231 1.49 4.297 2.387 6.309a12.652 12.652 0 0 0 2.844 3.785c.53.539 1.061 1.078 1.61 1.609.338.311.978.877 1.481.475z" fill="url(#q)"/><path d="M135.672 153.925a4.023 4.023 0 0 0-7.97-.798 4.018 4.018 0 0 0 1.71 4.133c.662.442 1.44.678 2.236.678a4.011 4.011 0 0 0 4.024-4.013zm10.719 0a4.01 4.01 0 0 0-4.798-3.937 4.014 4.014 0 1 0 2.321 7.647 3.995 3.995 0 0 0 2.477-3.71z" stroke="#fff" stroke-miterlimit="10" stroke-linecap="round" stroke-linejoin="round"/><path d="M135.572 153.175a1.452 1.452 0 0 1 1.449-1.339 1.456 1.456 0 0 1 1.45 1.339m-10.362-1.18l-12.905.366" stroke="#fff" stroke-miterlimit="10" stroke-linecap="round" stroke-linejoin="round"/><path d="M188.878 237.408l11.11 2.778s6.634-.816 12.086 0c5.01.748 5.743 5.48 5.743 5.48H191.13l-2.252-8.258z" fill="url(#r)"/><path d="M159.587 204.133a212.865 212.865 0 0 1 8.35 26.651l26.815 7.074v9.202h-38.393s-13.377-34.63-14.935-43.055a133.231 133.231 0 0 0-3.21-14.372c-.622-2.057-1.61-4.069-2.012-6.181-.265-1.335-.393-3.072.448-4.233 1.024-1.417 2.917-.823 4.253-.256a21.282 21.282 0 0 1 5.139 3.419 37.382 37.382 0 0 1 7.619 9.271 76.01 76.01 0 0 1 5.359 11.127c.21.43.393.896.567 1.353z" fill="url(#s)"/><path d="M151.32 197.472c-.274-.85-.557-1.701-.85-2.542-1.729-4.983-3.658-10.77-7.682-14.382-2.296-2.038-5.488-3.254-8.487-2.505.695 3.109-1.244 6.464-4.125 7.845a9.95 9.95 0 0 1-9.146-.677 15.682 15.682 0 0 1-6.063-7.204 2.092 2.092 0 0 0-.869-1.161 2.058 2.058 0 0 0-1.436.054 44.827 44.827 0 0 0-9.575 3.539c-7.719 4.297-9.475 12.8-8.002 21.028.823 4.572 2.487 8.997 3.95 13.44 5.387 16.329 8.112 33.399 11.103 50.331.04.515.234 1.006.558 1.408.341.285.751.475 1.189.549a64.581 64.581 0 0 0 49.77-7.9 2.81 2.81 0 0 0 1.198-1.152 2.887 2.887 0 0 0 0-1.627 7229.498 7229.498 0 0 0-2.872-17.07c-1.573-9.316-3.146-18.633-5.103-27.876-.969-4.745-2.131-9.472-3.558-14.098z" fill="url(#t)"/><path d="M110.335 266.197s-1.767 21.756 13.854 24.069c12.365 1.829 71.972 3.458 71.972 3.458s37.818 59.618 48.607 70.915l14.794-10.802-51.719-90.106s-43.5-11.388-97.508 2.466z" fill="url(#u)"/><path d="M162.743 245.533c.105 1.987-.264 4.858-1.027 5.151-.908 0-2.187-2.349-2.187-4.975 0-2.626.736-4.873 1.644-4.873.907 0 1.465 2.691 1.57 4.697z" fill="url(#v)"/><path d="M152.844 241.012l11.111 2.778s6.634-.816 12.086 0c5.009.748 5.742 5.48 5.742 5.48h-26.686l-2.253-8.258z" fill="url(#w)"/><path d="M123.426 238.019c16.554 0 37.805 2.818 37.805 2.818s-1.217.704-.998 4.931c.205 3.938 1.585 4.931 1.585 4.931-22.072 4.11-49.464 8.931-52.951 4.697-4.931-5.988-12.093-29.118-13.972-49.782-.802-8.825-2.104-19.435 6.458-21.721 5.92-1.58 9.481 1.15 11.388 5.753 3.405 8.219 9.574 31.873 10.685 48.373z" fill="url(#x)"/><path d="M299.961 262.759H53.279c-.869-.006-1.701-.723-2.316-1.995-.614-1.272-.96-2.995-.963-4.794.003-1.798.349-3.522.963-4.793.615-1.272 1.447-1.989 2.316-1.995h246.682c.868.006 1.701.723 2.315 1.995.615 1.271.961 2.995.964 4.793-.003 1.799-.349 3.522-.964 4.794-.614 1.272-1.447 1.989-2.315 1.995z" fill="url(#y)"/><path d="M180.137 247.388c0-.971.787-1.758 1.759-1.758h45.724a1.758 1.758 0 1 1 0 3.517h-45.724a1.758 1.758 0 0 1-1.759-1.759z" fill="url(#z)"/><path d="M281.158 148.048c4.205 0 7.46 3.68 6.948 7.853l-8.179 66.615a6.998 6.998 0 0 1-6.947 6.147h-92.579c-4.204 0-7.46-3.68-6.948-7.854l1.294-10.527 6.884-56.087a7.001 7.001 0 0 1 6.948-6.147h92.579z" fill="url(#A)"/><path d="M241.384 182.812c-.253-2.56-1.597-5.114-4.15-5.43h-4.495a4.626 4.626 0 0 0-3.581 1.08 4.627 4.627 0 0 0-1.618 3.373l-1.962 60.756a3.701 3.701 0 0 1-3.693 3.581h-11.073a1.518 1.518 0 0 0-1.484 1.083 1.5 1.5 0 0 0 .24 1.291 1.492 1.492 0 0 0 1.167.601h35.32a1.777 1.777 0 0 0 1.701-1.219c.077-.237.104-.488.079-.737l-6.451-64.379z" fill="url(#B)"/><defs><linearGradient id="b" x1="109.475" y1="308.745" x2="109.489" y2="359.57" gradientUnits="userSpaceOnUse"><stop stop-color="#F1E1D3"/><stop offset="1" stop-color="#E1CCB9"/></linearGradient><linearGradient id="c" x1="175.416" y1="308.745" x2="175.431" y2="359.57" gradientUnits="userSpaceOnUse"><stop stop-color="#F1E1D3"/><stop offset="1" stop-color="#E1CCB9"/></linearGradient><linearGradient id="d" x1="191.371" y1="308.745" x2="191.385" y2="359.57" gradientUnits="userSpaceOnUse"><stop stop-color="#F1E1D3"/><stop offset="1" stop-color="#E1CCB9"/></linearGradient><linearGradient id="e" x1="125.57" y1="308.745" x2="125.585" y2="359.57" gradientUnits="userSpaceOnUse"><stop stop-color="#F1E1D3"/><stop offset="1" stop-color="#E1CCB9"/></linearGradient><linearGradient id="f" x1="106.363" y1="287.506" x2="131.687" y2="239.672" gradientUnits="userSpaceOnUse"><stop stop-color="#F1E1D3"/><stop offset="1" stop-color="#E1CCB9"/></linearGradient><linearGradient id="g" x1="93.522" y1="273.484" x2="93.542" y2="349.645" gradientUnits="userSpaceOnUse"><stop stop-color="#F1E1D3"/><stop offset="1" stop-color="#E1CCB9"/></linearGradient><linearGradient id="h" x1="279.864" y1="273.457" x2="279.884" y2="349.623" gradientUnits="userSpaceOnUse"><stop stop-color="#F1E1D3"/><stop offset="1" stop-color="#E1CCB9"/></linearGradient><linearGradient id="i" x1="249.699" y1="370.564" x2="212.128" y2="380" gradientUnits="userSpaceOnUse"><stop stop-color="#FFCA4B"/><stop offset="1" stop-color="#F2AB01"/></linearGradient><linearGradient id="j" x1="265.577" y1="354.349" x2="271.776" y2="366.214" gradientUnits="userSpaceOnUse"><stop stop-color="#FFCA4B"/><stop offset="1" stop-color="#F2AB01"/></linearGradient><linearGradient id="k" x1="204.209" y1="299.078" x2="222.46" y2="243.554" gradientUnits="userSpaceOnUse"><stop stop-color="#222"/><stop offset="1" stop-color="#444"/></linearGradient><linearGradient id="l" x1="98.198" y1="120.05" x2="105.584" y2="135.036" gradientUnits="userSpaceOnUse"><stop stop-color="#474847"/><stop offset=".766" stop-color="#2F302F"/></linearGradient><linearGradient id="m" x1="104.954" y1="130.24" x2="107.353" y2="134.565" gradientUnits="userSpaceOnUse"><stop stop-color="#FFCA4B"/><stop offset="1" stop-color="#F2AB01"/></linearGradient><linearGradient id="n" x1="122.929" y1="125.127" x2="140.207" y2="155.25" gradientUnits="userSpaceOnUse"><stop stop-color="#474847"/><stop offset=".766" stop-color="#2F302F"/></linearGradient><linearGradient id="o" x1="124.285" y1="171.683" x2="120.314" y2="183.893" gradientUnits="userSpaceOnUse"><stop stop-color="#76492A"/><stop offset="1" stop-color="#895836"/></linearGradient><linearGradient id="p" x1="131.586" y1="172.153" x2="142.387" y2="145.383" gradientUnits="userSpaceOnUse"><stop stop-color="#895836"/><stop offset="1" stop-color="#9A6A49"/></linearGradient><linearGradient id="q" x1="123.837" y1="124.954" x2="139.207" y2="151.365" gradientUnits="userSpaceOnUse"><stop stop-color="#474847"/><stop offset=".766" stop-color="#2F302F"/></linearGradient><linearGradient id="r" x1="212.2" y1="169.85" x2="227.272" y2="244.929" gradientUnits="userSpaceOnUse"><stop stop-color="#D7AA8C"/><stop offset="1" stop-color="#A4714F"/></linearGradient><linearGradient id="s" x1="144.735" y1="183.424" x2="147.28" y2="224.153" gradientUnits="userSpaceOnUse"><stop stop-color="#FFCA4B"/><stop offset="1" stop-color="#F2AB01"/></linearGradient><linearGradient id="t" x1="126.654" y1="188.59" x2="119.258" y2="249.408" gradientUnits="userSpaceOnUse"><stop stop-color="#FFCA4B"/><stop offset="1" stop-color="#F2AB01"/></linearGradient><linearGradient id="u" x1="137.926" y1="283.926" x2="206.962" y2="240.719" gradientUnits="userSpaceOnUse"><stop stop-color="#222"/><stop offset="1" stop-color="#444"/></linearGradient><linearGradient id="v" x1="154.246" y1="243.361" x2="159.32" y2="249.687" gradientUnits="userSpaceOnUse"><stop stop-color="#FFCA4B"/><stop offset="1" stop-color="#F2AB01"/></linearGradient><linearGradient id="w" x1="176.167" y1="173.454" x2="191.239" y2="248.533" gradientUnits="userSpaceOnUse"><stop stop-color="#D7AA8C"/><stop offset="1" stop-color="#A4714F"/></linearGradient><linearGradient id="x" x1="105.579" y1="189.881" x2="102.762" y2="282.987" gradientUnits="userSpaceOnUse"><stop stop-color="#FFCA4B"/><stop offset="1" stop-color="#F2AB01"/></linearGradient><linearGradient id="y" x1="215.239" y1="249.182" x2="215.239" y2="262.759" gradientUnits="userSpaceOnUse"><stop offset=".05" stop-color="#F1E1D3"/><stop offset="1" stop-color="#E1CCB9"/></linearGradient><linearGradient id="z" x1="223.686" y1="247.388" x2="202.133" y2="247.388" gradientUnits="userSpaceOnUse"><stop stop-color="#CFCFCF"/><stop offset="1" stop-color="#E6E6E6"/></linearGradient><linearGradient id="A" x1="281.195" y1="228.663" x2="181.306" y2="148.048" gradientUnits="userSpaceOnUse"><stop stop-color="#CFCFCF"/><stop offset="1" stop-color="#E6E6E6"/></linearGradient><linearGradient id="B" x1="243.385" y1="213.247" x2="226.503" y2="213.247" gradientUnits="userSpaceOnUse"><stop stop-color="#CFCFCF"/><stop offset="1" stop-color="#E6E6E6"/></linearGradient></defs></svg>