<svg xmlns="http://www.w3.org/2000/svg" version="1.1" xmlns:xlink="http://www.w3.org/1999/xlink" xmlns:svgjs="http://svgjs.dev/svgjs" width="1000" height="103" viewBox="0 0 1000 103"><g transform="matrix(1,0,0,1,-0.6060531548858421,0.379274783010473)"><svg viewBox="0 0 396 41" data-background-color="#7a26c1" preserveAspectRatio="xMidYMid meet" height="103" width="1000" xmlns="http://www.w3.org/2000/svg" xmlns:xlink="http://www.w3.org/1999/xlink"><g id="tight-bounds" transform="matrix(1,0,0,1,0.23999704933478938,-0.1509734573148478)"><svg viewBox="0 0 395.5199999999999 41.30194691462969" height="41.30194691462969" width="395.5199999999999"><g><svg viewBox="0 0 482.7250703330383 50.4082858749394" height="41.30194691462969" width="395.5199999999999"><g><rect width="3.289342432382821" height="36.65725564711584" x="75.30488383682612" y="6.875515113911781" fill="#a437db" opacity="1" stroke-width="0" stroke="transparent" fill-opacity="1" class="rect-o-0" data-fill-palette-color="primary" rx="1%" id="o-0" data-palette-color="#a437db"></rect></g><g transform="matrix(1,0,0,1,87.20507033303832,6.966702317014057)"><svg viewBox="0 0 395.52 36.47488124091129" height="36.47488124091129" width="395.52"><g><svg viewBox="0 0 395.52 36.47488124091129" height="36.47488124091129" width="395.52"><g><svg viewBox="0 0 395.52 36.47488124091129" height="36.47488124091129" width="395.52"><g transform="matrix(1,0,0,1,0,0)"><svg width="395.52" viewBox="5.199999809265137 -37.650001525878906 412.67999267578125 38.05000305175781" height="36.47488124091129" data-palette-color="#a437db"><g class="undefined-text-0" data-fill-palette-color="primary" id="text-0"><path d="M16.8 0L5.2 0 5.2-36.15 15.05-36.15Q20.4-36.15 24.18-34.5 27.95-32.85 30.25-30.15 32.55-27.45 33.63-24.18 34.7-20.9 34.7-17.65L34.7-17.65Q34.7-13.55 33.27-10.3 31.85-7.05 29.35-4.75 26.85-2.45 23.63-1.23 20.4 0 16.8 0L16.8 0ZM10.05-31.5L10.05-4.65 15.85-4.65Q18.85-4.65 21.38-5.55 23.9-6.45 25.78-8.15 27.65-9.85 28.7-12.33 29.75-14.8 29.75-17.95L29.75-17.95Q29.75-21.3 28.65-23.83 27.55-26.35 25.65-28.05 23.75-29.75 21.35-30.63 18.95-31.5 16.3-31.5L16.3-31.5 10.05-31.5ZM42.85 0L42.85-36.15 47.7-36.15 47.7 0 42.85 0ZM86.4-17.7L86.4-3.1Q85.65-2.45 84.3-1.83 82.95-1.2 81.32-0.7 79.7-0.2 77.97 0.1 76.25 0.4 74.75 0.4L74.75 0.4Q70.4 0.4 66.92-0.95 63.45-2.3 60.97-4.7 58.5-7.1 57.17-10.35 55.85-13.6 55.85-17.4L55.85-17.4Q55.85-21.9 57.32-25.48 58.8-29.05 61.37-31.53 63.95-34 67.3-35.27 70.65-36.55 74.4-36.55L74.4-36.55Q77.55-36.55 80.25-35.8 82.95-35.05 85-33.9L85-33.9 83.34-29.45Q82.34-30.05 80.87-30.55 79.4-31.05 77.84-31.38 76.3-31.7 74.95-31.7L74.95-31.7Q71.75-31.7 69.15-30.73 66.55-29.75 64.7-27.93 62.85-26.1 61.85-23.53 60.85-20.95 60.85-17.75L60.85-17.75Q60.85-14.8 61.85-12.35 62.85-9.9 64.7-8.13 66.55-6.35 69.12-5.38 71.7-4.4 74.8-4.4L74.8-4.4Q76.65-4.4 78.45-4.78 80.25-5.15 81.55-5.85L81.55-5.85 81.55-13.05 74.34-13.05 74.34-17.7 86.4-17.7ZM95.64 0L95.64-36.15 100.49-36.15 100.49 0 95.64 0ZM108.24-31.5L108.24-36.15 132.24-36.15 132.24-31.5 122.54-31.5 122.54 0 117.69 0 117.69-31.5 108.24-31.5ZM141.09 0L136.34 0 152.14-37.65 152.44-37.65 168.19 0 162.64 0 150.84-30.05 154.29-32.3 141.09 0ZM144.19-9.5L145.59-13.7 159.04-13.7 160.64-9.5 144.19-9.5ZM174.99 0L174.99-36.15 179.84-36.15 179.84-4.65 198.19-4.65 198.19 0 174.99 0Z" fill="#a437db" data-fill-palette-color="primary"></path><path d="M214.99 0L203.39 0 203.39-36.15 213.24-36.15Q218.59-36.15 222.37-34.5 226.14-32.85 228.44-30.15 230.74-27.45 231.82-24.18 232.89-20.9 232.89-17.65L232.89-17.65Q232.89-13.55 231.46-10.3 230.04-7.05 227.54-4.75 225.04-2.45 221.82-1.23 218.59 0 214.99 0L214.99 0ZM208.24-31.5L208.24-4.65 214.04-4.65Q217.04-4.65 219.57-5.55 222.09-6.45 223.97-8.15 225.84-9.85 226.89-12.33 227.94-14.8 227.94-17.95L227.94-17.95Q227.94-21.3 226.84-23.83 225.74-26.35 223.84-28.05 221.94-29.75 219.54-30.63 217.14-31.5 214.49-31.5L214.49-31.5 208.24-31.5ZM241.04 0L241.04-36.15 264.54-36.15 264.54-31.5 245.89-31.5 245.89-20.5 262.54-20.5 262.54-15.85 245.89-15.85 245.89-4.65 265.24-4.65 265.24 0 241.04 0ZM273.64 0L273.64-36.15 278.49-36.15 278.49-4.65 296.84-4.65 296.84 0 273.64 0ZM304.73 0L304.73-36.15 309.58-36.15 309.58 0 304.73 0ZM348.28-17.7L348.28-3.1Q347.53-2.45 346.18-1.83 344.83-1.2 343.21-0.7 341.58-0.2 339.86 0.1 338.13 0.4 336.63 0.4L336.63 0.4Q332.28 0.4 328.81-0.95 325.33-2.3 322.86-4.7 320.38-7.1 319.06-10.35 317.73-13.6 317.73-17.4L317.73-17.4Q317.73-21.9 319.21-25.48 320.68-29.05 323.25-31.53 325.83-34 329.18-35.27 332.53-36.55 336.28-36.55L336.28-36.55Q339.43-36.55 342.13-35.8 344.83-35.05 346.88-33.9L346.88-33.9 345.23-29.45Q344.23-30.05 342.75-30.55 341.28-31.05 339.73-31.38 338.18-31.7 336.83-31.7L336.83-31.7Q333.63-31.7 331.03-30.73 328.43-29.75 326.58-27.93 324.73-26.1 323.73-23.53 322.73-20.95 322.73-17.75L322.73-17.75Q322.73-14.8 323.73-12.35 324.73-9.9 326.58-8.13 328.43-6.35 331-5.38 333.58-4.4 336.68-4.4L336.68-4.4Q338.53-4.4 340.33-4.78 342.13-5.15 343.43-5.85L343.43-5.85 343.43-13.05 336.23-13.05 336.23-17.7 348.28-17.7ZM381.33-36.15L386.13-36.15 386.13 0 381.33 0 381.33-15.85 362.38-15.85 362.38 0 357.53 0 357.53-36.15 362.38-36.15 362.38-20.45 381.33-20.45 381.33-36.15ZM393.88-31.5L393.88-36.15 417.88-36.15 417.88-31.5 408.18-31.5 408.18 0 403.33 0 403.33-31.5 393.88-31.5Z" fill="#bb84e8" data-fill-palette-color="secondary"></path></g></svg></g></svg></g></svg></g></svg></g><g><svg viewBox="0 0 66.69403977299675 50.4082858749394" height="50.4082858749394" width="66.69403977299675"><g><svg xmlns="http://www.w3.org/2000/svg" xmlns:xlink="http://www.w3.org/1999/xlink" version="1.1" x="0" y="0" viewBox="6.5 18 86 65" enable-background="new 0 0 100 100" xml:space="preserve" height="50.4082858749394" width="66.69403977299675" class="icon-icon-0" data-fill-palette-color="accent" id="icon-0"><g fill="#bb84e8" data-fill-palette-color="accent"><path d="M35.845 61.275l-10.72-5.09c-1.209-0.572-1.94-1.463-1.94-2.703v-0.318c0-1.24 0.731-2.131 1.94-2.704l10.72-5.089c0.381-0.191 0.731-0.318 1.177-0.318 1.018-0.031 1.94 0.859 1.94 2.004 0 0.922-0.509 1.559-1.336 1.94l-9.606 4.294 9.606 4.295c0.827 0.381 1.336 1.113 1.336 2.004 0 1.177-0.922 2.004-2.1 1.972C36.513 61.562 36.163 61.435 35.845 61.275z" fill="#bb84e8" data-fill-palette-color="accent"></path><path d="M41.889 66.047l12.438-25.988c0.35-0.731 0.922-1.113 1.686-1.113 1.018 0 1.876 0.859 1.876 1.813 0 0.35-0.127 0.7-0.222 0.923L45.229 67.669c-0.35 0.731-0.922 1.113-1.686 1.113-1.018 0-1.876-0.858-1.876-1.813C41.667 66.619 41.793 66.27 41.889 66.047z" fill="#bb84e8" data-fill-palette-color="accent"></path><path d="M64.155 45.371l10.72 5.089c1.208 0.573 1.94 1.464 1.94 2.704v0.318c0 1.24-0.731 2.131-1.94 2.703l-10.72 5.09c-0.381 0.191-0.731 0.318-1.177 0.318-1.018 0.031-1.94-0.859-1.94-2.004 0-0.923 0.509-1.559 1.336-1.94l9.606-4.295-9.606-4.294c-0.827-0.381-1.336-1.113-1.336-2.004 0-1.177 0.923-2.004 2.1-1.973C63.487 45.084 63.837 45.212 64.155 45.371z" fill="#bb84e8" data-fill-palette-color="accent"></path></g><path d="M92.5 21c0-1.657-1.343-3-3-3h-80c-1.657 0-3 1.343-3 3v59c0 1.657 1.343 3 3 3h80c1.657 0 3-1.343 3-3V21zM26 20.833c1.196 0 2.167 0.97 2.167 2.167s-0.97 2.167-2.167 2.167-2.167-0.97-2.167-2.167S24.804 20.833 26 20.833zM20 20.833c1.196 0 2.167 0.97 2.167 2.167s-0.97 2.167-2.167 2.167-2.167-0.97-2.167-2.167S18.804 20.833 20 20.833zM14 20.833c1.196 0 2.167 0.97 2.167 2.167s-0.97 2.167-2.167 2.167-2.167-0.97-2.167-2.167S12.804 20.833 14 20.833zM88.5 79h-78V29h78V79z" fill="#bb84e8" data-fill-palette-color="accent"></path></svg></g></svg></g></svg></g><defs></defs></svg><rect width="395.5199999999999" height="41.30194691462969" fill="none" stroke="none" visibility="hidden"></rect></g></svg></g></svg>