<svg xmlns="http://www.w3.org/2000/svg" version="1.1" xmlns:xlink="http://www.w3.org/1999/xlink" xmlns:svgjs="http://svgjs.dev/svgjs" width="1000" height="88" viewBox="0 0 1000 88"><g transform="matrix(1,0,0,1,-0.6060424755860367,-0.04977809043106873)"><svg viewBox="0 0 396 35" data-background-color="#35185a" preserveAspectRatio="xMidYMid meet" height="88" width="1000" xmlns="http://www.w3.org/2000/svg" xmlns:xlink="http://www.w3.org/1999/xlink"><g id="tight-bounds" transform="matrix(1,0,0,1,0.23999282033207692,0.01979810414871963)"><svg viewBox="0 0 395.52 34.960403791702575" height="34.960403791702575" width="395.52"><g><svg viewBox="0 0 395.52 34.960403791702575" height="34.960403791702575" width="395.52"><g><svg viewBox="0 0 395.52 34.960403791702575" height="34.960403791702575" width="395.52"><g><svg viewBox="0 0 395.52 34.960403791702575" height="34.960403791702575" width="395.52"><g><svg viewBox="0 0 395.52 34.960403791702575" height="34.960403791702575" width="395.52"><g transform="matrix(1,0,0,1,0,0)"><svg width="395.52" viewBox="2.5999999046325684 -35.20000076293945 406.1099853515625 35.900001525878906" height="34.960403791702575" data-palette-color="#ffffff"><path d="M17.35-35L17.35-35Q21.8-35 24.88-34.18 27.95-33.35 29.85-31.38 31.75-29.4 32.6-25.95 33.45-22.5 33.45-17.25L33.45-17.25Q33.45-12 32.6-8.55 31.75-5.1 29.85-3.13 27.95-1.15 24.88-0.33 21.8 0.5 17.35 0.5L17.35 0.5Q13.05 0.5 9.45 0.35 5.85 0.2 2.6 0L2.6 0 7-7.7Q8.75-7.5 11.43-7.43 14.1-7.35 17.35-7.35L17.35-7.35Q19.2-7.35 20.2-8.15 21.2-8.95 21.6-11.1 22-13.25 22-17.25L22-17.25Q22-21.25 21.6-23.4 21.2-25.55 20.2-26.35 19.2-27.15 17.35-27.15L17.35-27.15Q14.3-27.15 11.98-27.15 9.65-27.15 7.45-27.2L7.45-27.2 2.6-34.5Q5.9-34.7 9.43-34.85 12.95-35 17.35-35ZM2.6-34.5L13.45-34.5 13.45 0 2.6 0 2.6-34.5ZM37.7-34.5L48.45-34.5 48.45 0 37.7 0 37.7-34.5ZM68.95-35.2L68.95-35.2Q71.7-35.2 73.77-35.05 75.85-34.9 77.62-34.6 79.4-34.3 81.2-33.75L81.2-33.75 80.4-25.95Q78.5-26 76.77-26 75.05-26 73.2-26.03 71.35-26.05 69-26.05L69-26.05Q67.55-26.05 66.6-25.68 65.65-25.3 65.1-24.33 64.55-23.35 64.32-21.63 64.1-19.9 64.1-17.25L64.1-17.25Q64.1-13.75 64.5-11.88 64.9-10 65.85-9.28 66.8-8.55 68.5-8.55L68.5-8.55Q69.6-8.55 70.52-8.63 71.45-8.7 72.2-8.85 72.95-9 73.4-9.1L73.4-9.1 74.45-4.55Q73.85-3.55 72.47-2.3 71.1-1.05 69-0.18 66.9 0.7 64.15 0.7L64.15 0.7Q60.2 0.7 57.65-1.07 55.1-2.85 53.9-6.8 52.7-10.75 52.7-17.25L52.7-17.25Q52.7-23.9 54.27-27.83 55.85-31.75 59.42-33.48 63-35.2 68.95-35.2ZM72.25-19.85L82.65-19.85 82.65 0 74.65 0 73.25-5.35 72.25-7.2 72.25-19.85ZM87.14-34.5L97.89-34.5 97.89 0 87.14 0 87.14-34.5ZM110.69-34.5L121.54-34.5 121.54 0 110.69 0 110.69-34.5ZM101.04-34.5L131.19-34.5 131.19-26.4 101.04-26.4 101.04-34.5ZM140.94-34.5L150.79-34.5Q152.09-34.5 153.09-33.75 154.09-33 154.44-31.7L154.44-31.7 163.39 0 152.34 0 147.14-22.45Q146.94-23.4 146.79-24.43 146.64-25.45 146.54-26.4L146.54-26.4 145.19-26.4Q145.09-25.45 144.94-24.43 144.79-23.4 144.59-22.45L144.59-22.45 139.39 0 128.34 0 137.29-31.7Q137.64-33 138.64-33.75 139.64-34.5 140.94-34.5L140.94-34.5ZM136.69-15.05L155.04-15.05 155.04-7.45 136.69-7.45 136.69-15.05ZM165.44-34.5L176.28-34.5 176.28-10.4Q176.28-9.6 176.86-9.1 177.44-8.6 178.38-8.6L178.38-8.6 189.99-8.6 190.49-0.5Q186.63 0 182.26 0.1 177.88 0.2 173.63 0.2L173.63 0.2Q169.88 0.2 167.66-1.98 165.44-4.15 165.44-7.65L165.44-7.65 165.44-34.5ZM217.58-35L217.58-35Q222.03-35 225.1-34.18 228.18-33.35 230.08-31.38 231.98-29.4 232.83-25.95 233.68-22.5 233.68-17.25L233.68-17.25Q233.68-12 232.83-8.55 231.98-5.1 230.08-3.13 228.18-1.15 225.1-0.33 222.03 0.5 217.58 0.5L217.58 0.5Q213.28 0.5 209.68 0.35 206.08 0.2 202.83 0L202.83 0 207.23-7.7Q208.98-7.5 211.66-7.43 214.33-7.35 217.58-7.35L217.58-7.35Q219.43-7.35 220.43-8.15 221.43-8.95 221.83-11.1 222.23-13.25 222.23-17.25L222.23-17.25Q222.23-21.25 221.83-23.4 221.43-25.55 220.43-26.35 219.43-27.15 217.58-27.15L217.58-27.15Q214.53-27.15 212.2-27.15 209.88-27.15 207.68-27.2L207.68-27.2 202.83-34.5Q206.13-34.7 209.66-34.85 213.18-35 217.58-35ZM202.83-34.5L213.68-34.5 213.68 0 202.83 0 202.83-34.5ZM245.73-34.7L245.73-34.7Q248.73-34.7 251.9-34.68 255.08-34.65 258.13-34.52 261.18-34.4 263.68-34.05L263.68-34.05 263.18-26.4 250.53-26.4Q249.58-26.4 249.03-25.9 248.48-25.4 248.48-24.6L248.48-24.6 248.48-9.9Q248.48-9.1 249.03-8.6 249.58-8.1 250.53-8.1L250.53-8.1 263.18-8.1 263.68-0.45Q261.18-0.15 258.13 0 255.08 0.15 251.9 0.18 248.73 0.2 245.73 0.2L245.73 0.2Q242.18 0.2 239.9-1.98 237.63-4.15 237.63-7.65L237.63-7.65 237.63-26.85Q237.63-30.35 239.9-32.52 242.18-34.7 245.73-34.7ZM238.53-14.05L238.53-21.25 261.38-21.25 261.38-14.05 238.53-14.05ZM267.57-34.5L278.43-34.5 278.43-10.4Q278.43-9.6 279-9.1 279.57-8.6 280.52-8.6L280.52-8.6 292.13-8.6 292.63-0.5Q288.77 0 284.4 0.1 280.02 0.2 275.77 0.2L275.77 0.2Q272.02 0.2 269.8-1.98 267.57-4.15 267.57-7.65L267.57-7.65 267.57-34.5ZM295.57-34.5L306.32-34.5 306.32 0 295.57 0 295.57-34.5ZM326.82-35.2L326.82-35.2Q329.57-35.2 331.65-35.05 333.72-34.9 335.5-34.6 337.27-34.3 339.07-33.75L339.07-33.75 338.27-25.95Q336.37-26 334.65-26 332.92-26 331.07-26.03 329.22-26.05 326.87-26.05L326.87-26.05Q325.42-26.05 324.47-25.68 323.52-25.3 322.97-24.33 322.42-23.35 322.2-21.63 321.97-19.9 321.97-17.25L321.97-17.25Q321.97-13.75 322.37-11.88 322.77-10 323.72-9.28 324.67-8.55 326.37-8.55L326.37-8.55Q327.47-8.55 328.4-8.63 329.32-8.7 330.07-8.85 330.82-9 331.27-9.1L331.27-9.1 332.32-4.55Q331.72-3.55 330.35-2.3 328.97-1.05 326.87-0.18 324.77 0.7 322.02 0.7L322.02 0.7Q318.07 0.7 315.52-1.07 312.97-2.85 311.77-6.8 310.57-10.75 310.57-17.25L310.57-17.25Q310.57-23.9 312.15-27.83 313.72-31.75 317.3-33.48 320.87-35.2 326.82-35.2ZM330.12-19.85L340.52-19.85 340.52 0 332.52 0 331.12-5.35 330.12-7.2 330.12-19.85ZM345.02-34.5L355.87-34.5 355.87 0 345.02 0 345.02-34.5ZM355.47-22.1L365.12-22.1 365.12-14.5 355.47-14.5 355.47-22.1ZM364.57-34.5L375.42-34.5 375.42 0 364.57 0 364.57-34.5ZM388.21-34.5L399.06-34.5 399.06 0 388.21 0 388.21-34.5ZM378.56-34.5L408.71-34.5 408.71-26.4 378.56-26.4 378.56-34.5Z" opacity="1" transform="matrix(1,0,0,1,0,0)" fill="#ffffff" class="undefined-text-0" data-fill-palette-color="primary" id="text-0"></path></svg></g></svg></g></svg></g></svg></g></svg></g><defs></defs></svg><rect width="395.52" height="34.960403791702575" fill="none" stroke="none" visibility="hidden"></rect></g></svg></g></svg>