<svg xmlns="http://www.w3.org/2000/svg" version="1.1" xmlns:xlink="http://www.w3.org/1999/xlink" xmlns:svgjs="http://svgjs.dev/svgjs" width="1000" height="1000" viewBox="0 0 1000 1000"><rect width="1000" height="1000" fill="#ffffff"></rect><g transform="matrix(0.7,0,0,0.7,149.5757576619543,466.02646350225825)"><svg viewBox="0 0 396 39" data-background-color="#35185a" preserveAspectRatio="xMidYMid meet" height="98" width="1000" xmlns="http://www.w3.org/2000/svg" xmlns:xlink="http://www.w3.org/1999/xlink"><g id="tight-bounds" transform="matrix(1,0,0,1,0.24000004876273806,-0.1855987840826856)"><svg viewBox="0 0 395.52 39.371197568165364" height="39.371197568165364" width="395.52"><g><svg viewBox="0 0 454.6163685010526 45.25381993825044" height="39.371197568165364" width="395.52"><g transform="matrix(1,0,0,1,59.09636850105259,6.254326778730707)"><svg viewBox="0 0 395.52 32.74516638078902" height="32.74516638078902" width="395.52"><g><svg viewBox="0 0 395.52 32.74516638078902" height="32.74516638078902" width="395.52"><g><svg viewBox="0 0 395.52 32.74516638078902" height="32.74516638078902" width="395.52"><g transform="matrix(1,0,0,1,0,0)"><svg width="395.52" viewBox="4.150000095367432 -35.599998474121094 438.58001708984375 36.19999694824219" height="32.74516638078902" data-palette-color="#0d0b10"><g class="undefined-text-0" data-fill-palette-color="primary" id="text-0"><path d="M4.15 0L4.15-35 20.05-35Q25.75-35 30.13-32.83 34.5-30.65 36.93-26.7 39.35-22.75 39.35-17.5L39.35-17.5Q39.35-12.25 36.93-8.3 34.5-4.35 30.13-2.18 25.75 0 20.05 0L20.05 0 4.15 0ZM12.25-6.65L19.65-6.65Q24.9-6.65 28.03-9.58 31.15-12.5 31.15-17.5L31.15-17.5Q31.15-22.5 28.03-25.43 24.9-28.35 19.65-28.35L19.65-28.35 12.25-28.35 12.25-6.65ZM45.45 0L45.45-35 53.55-35 53.55 0 45.45 0ZM85.5-7.8L85.5-18.05 92.9-18.05 92.9-3.85Q90.05-1.7 86.3-0.55 82.55 0.6 78.75 0.6L78.75 0.6Q73.3 0.6 68.95-1.73 64.6-4.05 62.12-8.18 59.65-12.3 59.65-17.5L59.65-17.5Q59.65-22.7 62.12-26.83 64.6-30.95 69-33.27 73.4-35.6 78.9-35.6L78.9-35.6Q83.5-35.6 87.25-34.05 91-32.5 93.55-29.55L93.55-29.55 88.35-24.75Q84.6-28.7 79.3-28.7L79.3-28.7Q75.95-28.7 73.35-27.3 70.75-25.9 69.3-23.35 67.85-20.8 67.85-17.5L67.85-17.5Q67.85-14.25 69.3-11.7 70.75-9.15 73.32-7.73 75.9-6.3 79.2-6.3L79.2-6.3Q82.7-6.3 85.5-7.8L85.5-7.8ZM100.39 0L100.39-35 108.49-35 108.49 0 100.39 0ZM124.04 0L124.04-28.4 112.84-28.4 112.84-35 143.34-35 143.34-28.4 132.14-28.4 132.14 0 124.04 0ZM173.84 0L170.74-7.5 154.49-7.5 151.39 0 143.09 0 158.69-35 166.69-35 182.34 0 173.84 0ZM157.09-13.65L168.19-13.65 162.64-27.05 157.09-13.65ZM185.99 0L185.99-35 194.09-35 194.09-6.6 211.64-6.6 211.64 0 185.99 0Z" fill="#000000" data-fill-palette-color="primary"></path><path d="M215.79 0L215.79-35 231.69-35Q237.39-35 241.77-32.83 246.14-30.65 248.57-26.7 250.99-22.75 250.99-17.5L250.99-17.5Q250.99-12.25 248.57-8.3 246.14-4.35 241.77-2.18 237.39 0 231.69 0L231.69 0 215.79 0ZM223.89-6.65L231.29-6.65Q236.54-6.65 239.67-9.58 242.79-12.5 242.79-17.5L242.79-17.5Q242.79-22.5 239.67-25.43 236.54-28.35 231.29-28.35L231.29-28.35 223.89-28.35 223.89-6.65ZM265.14-6.5L284.19-6.5 284.19 0 257.09 0 257.09-35 283.54-35 283.54-28.5 265.14-28.5 265.14-20.9 281.39-20.9 281.39-14.6 265.14-14.6 265.14-6.5ZM290.64 0L290.64-35 298.74-35 298.74-6.6 316.29-6.6 316.29 0 290.64 0ZM320.83 0L320.83-35 328.93-35 328.93 0 320.83 0ZM360.88-7.8L360.88-18.05 368.28-18.05 368.28-3.85Q365.43-1.7 361.68-0.55 357.93 0.6 354.13 0.6L354.13 0.6Q348.68 0.6 344.33-1.73 339.98-4.05 337.51-8.18 335.03-12.3 335.03-17.5L335.03-17.5Q335.03-22.7 337.51-26.83 339.98-30.95 344.38-33.27 348.78-35.6 354.28-35.6L354.28-35.6Q358.88-35.6 362.63-34.05 366.38-32.5 368.93-29.55L368.93-29.55 363.73-24.75Q359.98-28.7 354.68-28.7L354.68-28.7Q351.33-28.7 348.73-27.3 346.13-25.9 344.68-23.35 343.23-20.8 343.23-17.5L343.23-17.5Q343.23-14.25 344.68-11.7 346.13-9.15 348.71-7.73 351.28-6.3 354.58-6.3L354.58-6.3Q358.08-6.3 360.88-7.8L360.88-7.8ZM399.78-35L407.88-35 407.88 0 399.78 0 399.78-14.35 383.88-14.35 383.88 0 375.78 0 375.78-35 383.88-35 383.88-21.2 399.78-21.2 399.78-35ZM423.43 0L423.43-28.4 412.23-28.4 412.23-35 442.73-35 442.73-28.4 431.53-28.4 431.53 0 423.43 0Z" fill="#000000" data-fill-palette-color="secondary"></path></g></svg></g></svg></g></svg></g></svg></g><g><svg viewBox="0 0 51.36602060254144 45.25381993825044" height="45.25381993825044" width="51.36602060254144"><g><svg xmlns="http://www.w3.org/2000/svg" xmlns:xlink="http://www.w3.org/1999/xlink" version="1.1" x="0" y="0" viewBox="6.300000190734863 11.5 87.39999389648438 77" style="enable-background:new 0 0 100 100;" xml:space="preserve" height="45.25381993825044" width="51.36602060254144" class="icon-icon-0" data-fill-palette-color="accent" id="icon-0"><path d="M72.3 12.3L72.3 12.3 72.3 12.3l-0.4-0.8H28.2L6.3 50l21.8 38.5h43.7L93.7 50 72.3 12.3zM33.3 25.3L9.9 47.7l18.6-32.8L33.3 25.3zM70.7 14.8l6.4 35.7L36.9 25.8 70.7 14.8zM35.5 27.3l41 25.2-41 23.3V27.3zM77 54.5l-7.2 30.8-32.6-8.1L77 54.5zM33.5 75L9.9 50.5l23.6-22.7V75zM33.2 77.6l-4.6 7.7L11.5 55.1 33.2 77.6zM35 78.6l31.4 7.9H30.2L35 78.6zM79.3 53.3l11.6-2.5L72.1 84 79.3 53.3zM90.7 48.9l-11.4 2.5-5.9-33.1L90.7 48.9zM35 24.3l-5-10.8h38.2L35 24.3z" fill="#000000" data-fill-palette-color="accent"></path></svg></g></svg></g></svg></g><defs></defs></svg><rect width="395.52" height="39.371197568165364" fill="none" stroke="none" visibility="hidden"></rect></g></svg></g></svg>