<svg width="520" height="360" viewBox="0 0 520 360" fill="none" xmlns="http://www.w3.org/2000/svg"><g clip-path="url(#a)"><path d="M95.557 345.263c-9.236.93-36.502 2.93-39.989-5.456-10.014-24.089 11.995-97.608 19.203-104.515a4.228 4.228 0 0 1 1.375-.905 17.654 17.654 0 0 1 2.051-2.313c17.672-16.779 56.13-18.026 73.803-18.026 18.242 0 45.39 2.524 56.689 7.863 10.632 5.023 20.282 21.301 20.986 25.723a94.174 94.174 0 0 1 6.569 17.874c6.93 26.996 9.126 57.326 6.949 67.684-2.813 13.385-27.29 12.757-36.321 12.057-6.564.687-16.343.259-27.44-.227-9.493-.416-19.951-.874-30.185-.712-9.669.154-18.539.52-26.293.84-12.449.514-22.02.909-27.397.113z" fill="url(#b)"/><path fill-rule="evenodd" clip-rule="evenodd" d="M119.089 200.495c8.306-7.849 48.605-5.945 57.243 0 8.638 5.946 11.148 15.381 8.088 20.97-3.059 5.588-20.34 23.373-35.448 25.623-15.107 2.25-35.73-20.843-37.913-25.623-2.183-4.781-.276-13.12 8.03-20.97z" fill="url(#c)" filter="url(#d)"/><path fill-rule="evenodd" clip-rule="evenodd" d="M117.708 216.807s3.99-.556 5.326-.728c10.437-1.34 18.782.469 24.913.469 6.32 0 14.553-2.122 24.673-1.409 1.111.078 4.386.336 4.386.336-2.972 12.987-14.678 27.855-29.115 27.855-10.59 0-30.183-14.548-30.183-26.523z" fill="#fff"/><path d="M161.537 188.169h-26.818v27.085c-8.782.397-12.055.862-12.055.862s4.477 18.734 26.602 17.948c22.125-.786 23.354-18.925 23.354-18.925s-3.028-.314-11.083-.385v-26.585z" fill="url(#e)"/><path d="M169.387 179.382c0 19.667-10.156 35.611-22.683 35.611-12.528 0-22.683-15.944-22.683-35.611 0-10.509-.646-19.875 2.558-26.361 2.793-5.652 8.509-9.118 20.125-9.25 11.4 1.512 14.967-1.027 20.672 10.072 5.704 11.1 3.017 15.956 2.011 25.539z" fill="url(#f)"/><path fill-rule="evenodd" clip-rule="evenodd" d="M146.81 130.052c18.46.654 20.963 5.725 22.415 10.458.704 2.294 6.593-1.961 7.912 5.882.651 3.874-.28 15.587-3.956 22.876-.575 1.14-1.978 13.072-1.978 13.072h-2.637s.234-3.537-.659-8.497c-.894-4.959-3.297-6.536-2.637-9.804.659-3.268 1.318-6.536-1.319-8.497-.742-.551-7.921-2.394-16.708-2.614-9.188-.23-20.004 1.204-20.871 2.614-2.496 4.061 0 3.922 0 8.497 0 2.44-1.318 5.878-1.318 10.458s.208 9.15.208 9.15h-2.637s-.142-5.182-.868-6.536c-1.733-3.234-2.637-3.921-3.955-6.536-1.319-2.614-3.768-16.76 2.637-30.065 2.64-5.486 7.911-11.112 26.371-10.458z" fill="url(#g)"/><path fill-rule="evenodd" clip-rule="evenodd" d="M126.873 146.88c-2.955 6.222-2.974 14.329-2.974 21.95h-2v-.132c0-7.464 0-16.006 3.168-22.676 1.612-3.394 4.048-6.321 7.705-8.388 3.645-2.059 8.434-3.226 14.697-3.226 5.92 0 10.457 1.143 13.912 3.196 3.467 2.06 5.767 4.991 7.286 8.425.761 1.721 1.328 3.577 1.75 5.523h.002c.349 1.609.599 3.284.779 4.999.419 3.999.45 8.199.452 12.279h1.774a5 5 0 0 1 5 5v12.189a5 5 0 0 1-5 5h-4.105a2.02 2.02 0 0 1-.367-.034c-.755 2.657-2.352 5.186-4.377 7.222-2.365 2.378-5.416 4.185-8.601 4.733-.492.816-1.691 1.392-3.092 1.392-1.839 0-3.331-.994-3.331-2.219 0-1.226 1.492-2.219 3.331-2.219 1.202 0 2.255.424 2.841 1.059 2.652-.48 5.304-2.014 7.434-4.156 2.207-2.22 3.75-4.985 4.162-7.688v-19.168a1.11 1.11 0 0 1 1.489-1.045 2 2 0 0 1 .511-.066h.331c-.004-4.128-.041-8.235-.441-12.074a44.477 44.477 0 0 0-.745-4.78h.001c-.395-1.822-.923-3.546-1.627-5.138-1.379-3.119-3.425-5.7-6.479-7.515-3.064-1.82-7.22-2.915-12.89-2.915-6.023 0-10.447 1.122-13.713 2.968-3.253 1.838-5.424 4.432-6.883 7.504zm-2.131 22.016a2 2 0 0 0-.511-.066h-4.105a5 5 0 0 0-5 5v12.189a5 5 0 0 0 5 5h4.105a2 2 0 0 0 .511-.066 1.11 1.11 0 0 0 1.489-1.045v-19.967a1.11 1.11 0 0 0-1.489-1.045z" fill="url(#h)"/><path fill-rule="evenodd" clip-rule="evenodd" d="M69.988 265.884c-.527-4.739 3.182-8.884 7.95-8.884h142.123c4.769 0 8.478 4.145 7.951 8.884l-8.226 74a8 8 0 0 1-7.951 7.116H86.165a8 8 0 0 1-7.95-7.116l-8.227-74z" fill="url(#i)"/><path fill-rule="evenodd" clip-rule="evenodd" d="M143.343 282.657a8 8 0 0 1 11.314 0l13.686 13.686a8 8 0 0 1 0 11.314l-13.686 13.686a8 8 0 0 1-11.314 0l-13.686-13.686a8 8 0 0 1 0-11.314l13.686-13.686z" fill="url(#j)" stroke="#fff" stroke-width="2"/><path d="M142.883 297.731l-5.524 4.42 5.524 4.419m12.153-8.839l5.524 4.42-5.524 4.419m-9.13 2.059l6.188-13.258" stroke="#fff" stroke-width="2" stroke-linecap="round" stroke-linejoin="round"/><path fill-rule="evenodd" clip-rule="evenodd" d="M69 347a2 2 0 0 1 2-2h156a2 2 0 0 1 2 2v1a2 2 0 0 1-2 2H71a2 2 0 0 1-2-2v-1z" fill="#C2C4C9"/><path fill-rule="evenodd" clip-rule="evenodd" d="M377.636 131.999c-12.195-3.704-25.606-2.386-36.654 5.002-9.142 6.113-17.254 14.026-23.924 23.042-2.056 2.777-17.662 25.947-14.926 28.804 16.517 17.255 38.837 27.58 61.777 31.006 21.185 3.65 43.124-.341 64.096-3.343-2.113-25.983-11.749-53.04-29.561-71.69a48.18 48.18 0 0 0-20.808-12.821z" fill="url(#k)"/><path d="M361.356 342.814c-19.456 1.746-45.19 3.81-53.257 3.317-10.283-.626-9.741-16.166-9.234-30.706.159-4.582.316-9.065.128-12.95-.784-16.213 2.193-63.637 18.326-72.239l.001.004.001-.005s26.924-14.776 50.679-14.176c19.15.482 48.769 14.176 48.769 14.176v.002c10.564 5.779 19.726 39.433 20.43 51.578.704 12.142-.27 65.022-16.837 66.555-9.518.878-37.189-2.512-59.006-5.556z" fill="url(#l)"/><path fill-rule="evenodd" clip-rule="evenodd" d="M355.679 195.925v24.746c0 12.139 23.988 12.69 23.988.495 0-6.954-1.004-25.241-1.004-25.241h-22.984z" fill="url(#m)"/><path fill-rule="evenodd" clip-rule="evenodd" d="M341.255 184.631c10.694-.169 28.171-3.543 34.739-22.665 3.543 13.521 9.377 19.664 15.302 22.051-2.81 11.542-10.914 28.726-23.993 29.065-13.525.348-22.174-14.05-26.048-28.451z" fill="url(#n)"/><path fill-rule="evenodd" clip-rule="evenodd" d="M375.282 313.889s6.597 13.898 6.86 13.105c.264-.796 15.703-10.941 15.703-10.941s6.904-5.44 4.117-8.14c-2.786-2.7 1.852-7.685.661-9.539-1.188-1.853-1.888-5.852-1.888-5.852l-2.89 7.706-8.792 1.06s-.04-7.725-1.889-8.766c-1.852-1.037-4.231 13.802-4.231 13.802l-7.651 7.565z" fill="#AF8162"/><path d="M384.397 331.642l-56.682 12.63" stroke="#E2C1AC" stroke-width=".8" stroke-linecap="square"/><path fill-rule="evenodd" clip-rule="evenodd" d="M290.987 265.883c-.526-4.738 3.183-8.883 7.951-8.883h142.124c4.768 0 8.477 4.145 7.951 8.883l-8.222 74A8 8 0 0 1 432.84 347H307.16a8 8 0 0 1-7.951-7.117l-8.222-74z" fill="url(#o)"/><circle cx="370" cy="302" r="20" fill="url(#p)" stroke="#fff" stroke-width="2"/><circle cx="374.195" cy="297.89" r="3.368" transform="rotate(45 374.195 297.89)" fill="#fff"/><ellipse cx="368.836" cy="303.249" rx="5.053" ry="6.737" transform="rotate(45 368.836 303.249)" fill="#fff"/><path d="M375.386 291.638s.135 1.795-.053 2.648c-.189.852-1.138 2.744-1.138 2.744m-6.507-3.913s.853 1.586 1.028 2.441c.175.855.077 2.97.077 2.97m-5.691-2.598s1.405 1.126 1.9 1.845c.495.719 1.231 2.704 1.231 2.704m-6.609.563s1.8-.041 2.642.191c.841.233 2.681 1.28 2.681 1.28m14.021 1.884s-1.586-.853-2.441-1.028c-.855-.175-2.97-.077-2.97-.077m2.598 5.691s-1.126-1.405-1.845-1.9c-.719-.495-2.704-1.231-2.704-1.231m-.562 6.609s.04-1.8-.192-2.642c-.233-.841-1.28-2.681-1.28-2.681m10.875-10.439s-1.774-.14-2.624.054c-.851.194-2.735 1.17-2.735 1.17" stroke="#fff" stroke-width="2" stroke-linecap="round" stroke-linejoin="round"/><path fill-rule="evenodd" clip-rule="evenodd" d="M355.215 291.072l3.857-3.857 25.713 25.713-3.857 3.857-25.713-25.713z" fill="url(#q)"/><path fill-rule="evenodd" clip-rule="evenodd" d="M355.215 288.501l1.286-1.286 28.284 28.284-1.286 1.286-28.284-28.284z" fill="#fff"/><path fill-rule="evenodd" clip-rule="evenodd" d="M290 347a2 2 0 0 1 2-2h156a2 2 0 0 1 2 2v1a2 2 0 0 1-2 2H292a2 2 0 0 1-2-2v-1z" fill="#C2C4C9"/><path d="M377 47c0-5.523 4.477-10 10-10h60c5.523 0 10 4.477 10 10v40c0 5.523-4.477 10-10 10h-60c-5.523 0-10-4.477-10-10V47z" fill="url(#r)"/><path d="M432 96.5h-10v10l10-10z" fill="url(#s)"/><circle cx="401" cy="67" r="4" fill="#fff"/><circle cx="417" cy="67" r="4" fill="#fff"/><circle cx="433" cy="67" r="4" fill="#fff"/><path d="M520 77c0-5.523-4.477-10-10-10h-60c-5.523 0-10 4.477-10 10v40c0 5.523 4.477 10 10 10h60c5.523 0 10-4.477 10-10V77z" fill="url(#t)"/><path d="M471 126.5h-10v10l10-10z" fill="url(#u)"/><circle r="4" transform="matrix(-1 0 0 1 496 97)" fill="#fff"/><circle r="4" transform="matrix(-1 0 0 1 480 97)" fill="#fff"/><circle r="4" transform="matrix(-1 0 0 1 464 97)" fill="#fff"/><path d="M1 69c0-5.523 4.477-10 10-10h70c5.523 0 10 4.477 10 10v50c0 5.523-4.477 10-10 10H11c-5.523 0-10-4.477-10-10V69z" fill="url(#v)"/><path d="M50 128.5h10v10l-10-10z" fill="url(#w)"/><rect x="21" y="102.691" width="50" height="2" rx="1" fill="#fff"/><rect x="21" y="108.691" width="50" height="2" rx="1" fill="#fff"/><path d="M21.196 81.78c.566-1.343 1.303-2.328 2.21-2.955.905-.627 2.06-.941 3.463-.941.697 0 1.355.1 1.974.3a4.35 4.35 0 0 1 1.621.902c.462.41.828.928 1.098 1.556.27.619.405 1.355.405 2.21 0 .522-.087 1.053-.261 1.594-.166.54-.445 1.124-.837 1.752-.383.618-.893 1.302-1.53 2.052a49.801 49.801 0 0 1-2.313 2.549l-3.124 3.215h8.457v2.223H21v-2.275l4.497-4.706A43.821 43.821 0 0 0 27 87.596c.48-.558.902-1.107 1.268-1.647s.654-1.067.863-1.582c.218-.514.326-1.006.326-1.477 0-.322-.047-.649-.143-.98a2.538 2.538 0 0 0-.47-.915 2.416 2.416 0 0 0-.864-.68c-.357-.174-.797-.261-1.32-.261-.54 0-.998.082-1.372.248a3.01 3.01 0 0 0-.942.601c-.252.244-.457.51-.614.798a7.69 7.69 0 0 0-.392.823l-2.144-.745zm21.608 14.457v-3.922H34.66V89.65l7.935-11.582h2.64v12h2.602v2.248h-2.602v3.922h-2.431zm-5.87-6.17h5.87v-8.968l-.837 1.334c-.113.174-.226.353-.34.536l-.326.523c-.105.165-.2.313-.288.444-.078.13-.144.235-.196.314l-3.882 5.817zm21.295-12.758l-6.34 19.163h-2.105l6.392-19.163h2.053zm3.307 18.928l6.85-15.726h-8.419v-2.274H71v2.078l-6.654 15.922h-2.81z" fill="#fff"/><path d="M199 35.1l42.54-33.181a4 4 0 0 1 4.92 0L289 35.1v48a6 6 0 0 1-6 6h-78a6 6 0 0 1-6-6v-48z" fill="url(#x)"/><path d="M204 8a2 2 0 0 1 2-2h76a2 2 0 0 1 2 2v50a2 2 0 0 1-2 2h-76a2 2 0 0 1-2-2V8z" fill="#F1F3F5"/><path d="M214 17a1 1 0 0 1 1-1h34a1 1 0 0 1 1 1v2a1 1 0 0 1-1 1h-34a1 1 0 0 1-1-1v-2zm0 8a1 1 0 0 1 1-1h58a1 1 0 0 1 1 1v2a1 1 0 0 1-1 1h-58a1 1 0 0 1-1-1v-2zm0 8a1 1 0 0 1 1-1h58a1 1 0 0 1 1 1v2a1 1 0 0 1-1 1h-58a1 1 0 0 1-1-1v-2zm0 8a1 1 0 0 1 1-1h58a1 1 0 0 1 1 1v2a1 1 0 0 1-1 1h-58a1 1 0 0 1-1-1v-2z" fill="#C8D0D4"/><path d="M199 35.1l45 23.143L289 35.1v54h-90v-54z" fill="url(#y)"/><path d="M241.544 55.91a4 4 0 0 1 4.912 0L289 89h-90l42.544-33.09z" fill="url(#z)"/></g><path d="M520 355a5 5 0 0 1-5 5H5a5 5 0 0 1 0-10h510a5 5 0 0 1 5 5z" fill="url(#A)"/><defs><filter id="d" x="96.224" y="185.298" width="103.445" height="79.944" filterUnits="userSpaceOnUse" color-interpolation-filters="sRGB"><feFlood flood-opacity="0" result="BackgroundImageFix"/><feColorMatrix in="SourceAlpha" values="0 0 0 0 0 0 0 0 0 0 0 0 0 0 0 0 0 0 127 0" result="hardAlpha"/><feOffset dy="4"/><feGaussianBlur stdDeviation="7"/><feComposite in2="hardAlpha" operator="out"/><feColorMatrix values="0 0 0 0 0 0 0 0 0 0 0 0 0 0 0 0 0 0 0.02 0"/><feBlend in2="BackgroundImageFix" result="effect1_dropShadow_10_2562"/><feBlend in="SourceGraphic" in2="effect1_dropShadow_10_2562" result="shape"/></filter><linearGradient id="b" x1="148.5" y1="221.75" x2="202.5" y2="338.5" gradientUnits="userSpaceOnUse"><stop offset=".009" stop-color="#DA595A"/><stop offset="1" stop-color="#E66667"/></linearGradient><linearGradient id="c" x1="147.947" y1="195.298" x2="147.947" y2="243.5" gradientUnits="userSpaceOnUse"><stop offset=".009" stop-color="#DA595A"/><stop offset="1" stop-color="#E66667"/></linearGradient><linearGradient id="e" x1="147.642" y1="211.129" x2="147.642" y2="234.088" gradientUnits="userSpaceOnUse"><stop stop-color="#EABC70"/><stop offset="1" stop-color="#F8D294"/></linearGradient><linearGradient id="f" x1="151" y1="164.5" x2="131" y2="206" gradientUnits="userSpaceOnUse"><stop stop-color="#FFECCC"/><stop offset="1" stop-color="#F8D294"/></linearGradient><linearGradient id="g" x1="146.776" y1="133.482" x2="146.776" y2="183.647" gradientUnits="userSpaceOnUse"><stop stop-color="#A46B48"/><stop offset="1" stop-color="#744629"/></linearGradient><linearGradient id="h" x1="131.75" y1="214.5" x2="169.75" y2="136" gradientUnits="userSpaceOnUse"><stop stop-color="#222"/><stop offset="1" stop-color="#444"/></linearGradient><linearGradient id="i" x1="87" y1="347" x2="211" y2="247" gradientUnits="userSpaceOnUse"><stop stop-color="#CFCFCF"/><stop offset="1" stop-color="#E6E6E6"/></linearGradient><linearGradient id="j" x1="167.5" y1="284.5" x2="123" y2="342.5" gradientUnits="userSpaceOnUse"><stop stop-color="#2A73A7"/><stop offset="1" stop-color="#134E78"/></linearGradient><linearGradient id="k" x1="424.5" y1="213" x2="338.5" y2="138" gradientUnits="userSpaceOnUse"><stop stop-color="#222"/><stop offset="1" stop-color="#444"/></linearGradient><linearGradient id="l" x1="368" y1="348.511" x2="368" y2="216.041" gradientUnits="userSpaceOnUse"><stop stop-color="#699B55"/><stop offset="1" stop-color="#7EC263"/></linearGradient><linearGradient id="m" x1="367.673" y1="212.986" x2="367.673" y2="242.5" gradientUnits="userSpaceOnUse"><stop stop-color="#895F43"/><stop offset="1" stop-color="#A4714F"/></linearGradient><linearGradient id="n" x1="354.045" y1="175.001" x2="375.011" y2="209.467" gradientUnits="userSpaceOnUse"><stop stop-color="#D7AA8C"/><stop offset="1" stop-color="#A4714F"/></linearGradient><linearGradient id="o" x1="308" y1="347" x2="432" y2="247" gradientUnits="userSpaceOnUse"><stop stop-color="#CFCFCF"/><stop offset="1" stop-color="#E6E6E6"/></linearGradient><linearGradient id="p" x1="350" y1="322" x2="390" y2="282" gradientUnits="userSpaceOnUse"><stop offset=".009" stop-color="#DA595A"/><stop offset="1" stop-color="#E66667"/></linearGradient><linearGradient id="q" x1="380.928" y1="316.785" x2="387.341" y2="308.109" gradientUnits="userSpaceOnUse"><stop offset=".009" stop-color="#DA595A"/><stop offset="1" stop-color="#E66667"/></linearGradient><linearGradient id="r" x1="453" y1="86.5" x2="380" y2="37" gradientUnits="userSpaceOnUse"><stop stop-color="#F2AB01"/><stop offset="1" stop-color="#FFCA4B"/></linearGradient><linearGradient id="s" x1="453" y1="86.5" x2="380" y2="37" gradientUnits="userSpaceOnUse"><stop stop-color="#F2AB01"/><stop offset="1" stop-color="#FFCA4B"/></linearGradient><linearGradient id="t" x1="490" y1="69.5" x2="448.5" y2="166.5" gradientUnits="userSpaceOnUse"><stop stop-color="#2A73A7"/><stop offset="1" stop-color="#134E78"/></linearGradient><linearGradient id="u" x1="490" y1="69.5" x2="448.5" y2="166.5" gradientUnits="userSpaceOnUse"><stop stop-color="#2A73A7"/><stop offset="1" stop-color="#134E78"/></linearGradient><linearGradient id="v" x1="7.5" y1="127" x2="91" y2="59" gradientUnits="userSpaceOnUse"><stop stop-color="#699B55"/><stop offset="1" stop-color="#7EC263"/></linearGradient><linearGradient id="w" x1="7.5" y1="127" x2="91" y2="59" gradientUnits="userSpaceOnUse"><stop stop-color="#699B55"/><stop offset="1" stop-color="#7EC263"/></linearGradient><linearGradient id="x" x1="244" y1="35.25" x2="244" y2="1.75" gradientUnits="userSpaceOnUse"><stop stop-color="#464B78"/><stop offset="1" stop-color="#585E91"/></linearGradient><linearGradient id="y" x1="244" y1="89.1" x2="244" y2="14.25" gradientUnits="userSpaceOnUse"><stop stop-color="#464B78"/><stop offset="1" stop-color="#585E91"/></linearGradient><linearGradient id="z" x1="244" y1="89" x2="244" y2="66.875" gradientUnits="userSpaceOnUse"><stop stop-color="#464B78"/><stop offset="1" stop-color="#585E91"/></linearGradient><linearGradient id="A" x1="341.409" y1="350" x2="341.409" y2="360" gradientUnits="userSpaceOnUse"><stop offset=".05" stop-color="#F1E1D3"/><stop offset="1" stop-color="#E1CCB9"/></linearGradient><clipPath id="a"><path fill="#fff" d="M0 0h520v350H0z"/></clipPath></defs></svg>